<svg id="Capa_1" data-name="Capa 1" xmlns="http://www.w3.org/2000/svg" viewBox="0 0 512 512"><defs><style>.cls-1{fill:#fff;}</style></defs><path class="cls-1" d="M477.05,132.59,413.89,56.8q-7.81,13.38-15.5,26.58V50.83h-.11v0H276.88v0h-163v0h-.08l.08.15V83.73L98.17,56.8C77,82.19,56.17,107.2,35,132.67H33.52c65,85.21,129.43,169.61,194.56,254.94q13.66,43.26,27.32,86.5l1.29-.08L284,387.6q95.82-125.53,191.65-251.07a41.25,41.25,0,0,1,2.86-3.07v-.87ZM370.33,194c-2.06,52.26-39.8,96.52-91.16,107.33-63.27,13.32-125.66-29-136.53-92.63-.71-4.18-1.16-8.4-1.73-12.61V181.7c.73-5.08,1.28-10.2,2.22-15.24,8.52-45.69,46.71-83.05,92.55-90.6,4.26-.7,8.55-1.18,12.83-1.76h13.9c4.43.59,8.93.87,13.28,1.83,6.46,1.43,12.85,3.25,19.22,5.1A4.36,4.36,0,0,1,298,86.81c-.88,2.46-3.23,3.46-6,2.64-4.5-1.33-9-2.63-13.53-3.91a22.92,22.92,0,0,0-2.35-.37c-.84,5.49-1.66,10.78-2.48,16.08-.07.44-.1.89-.18,1.33-.91,5.24-2.29,5.83-7.66,5.49a158.6,158.6,0,0,0-20.1,0c-5.6.37-7-.23-7.83-5.8s-1.7-11.2-2.54-16.76c-13.14-1.35-47.67,18.4-59.2,33.86l11.66,9.37c1.1.89,2.24,1.74,3.31,2.67,2.23,1.91,2.64,4.26.87,6.53a89.8,89.8,0,0,0-12.27,21.27c-1.11,2.72-3.37,3.51-6.31,2.39-5.23-2-10.43-4-15.65-6.06-.68-.27-1.37-.51-2-.75-7.29,19.12-8.08,46.17-.07,68.26l7.83-3c3.27-1.26,6.52-2.58,9.8-3.82s5.36-.33,6.66,2.84a86.13,86.13,0,0,0,11.71,20.31c2.17,2.81,1.87,5.08-.93,7.35-4.81,3.9-9.66,7.75-14.69,11.78,16,18,35.57,29.38,59.23,34.22.87-5.59,1.69-10.89,2.51-16.18.07-.44.1-.89.18-1.33.9-5.25,2.3-6.19,7.63-5.44a72.49,72.49,0,0,0,20.33,0c5.27-.74,6.73.24,7.58,5.52.91,5.66,1.73,11.34,2.66,17.44,23.64-4.77,43.13-16.25,59.27-34.19-1.14-.94-2.16-1.78-3.19-2.6-3.91-3.14-7.83-6.25-11.71-9.4-2.5-2-2.9-4.38-1-6.85a86.84,86.84,0,0,0,12.05-20.87c1.18-2.9,3.4-3.77,6.39-2.63,5.17,2,10.3,4,15.45,6,.75.29,1.51.56,2.27.83,7.16-18.63,8.23-45.62,0-68.2-1.43.54-2.86,1.06-4.28,1.61-4.31,1.68-8.61,3.38-12.93,5-3.6,1.39-5.69.54-7.14-3a85.36,85.36,0,0,0-11.5-19.91c-2.35-3-2-5.2,1-7.65l14.57-11.7c-2.77-2.78-5.38-5.42-8-8-.64-.64-1.35-1.19-2-1.83-2-2-2.15-4.5-.44-6.4a4.32,4.32,0,0,1,6.4-.22,143.08,143.08,0,0,1,10.44,10.46C361.92,136.36,371.54,163.36,370.33,194Zm-43.81-5A70.84,70.84,0,1,1,255.75,118,71,71,0,0,1,326.52,189Z"/><path class="cls-1" d="M307.62,94.14a4.34,4.34,0,0,1,4.27-4.52,4.43,4.43,0,1,1,.2,8.85A4.35,4.35,0,0,1,307.62,94.14Z"/><path class="cls-1" d="M251.19,179.48a7.46,7.46,0,0,0-7.44-7.63,7.36,7.36,0,0,0-7.44,7.59q-.1,9.42,0,18.83a7.38,7.38,0,0,0,7.4,7.64c4.25,0,7.43-3.3,7.48-7.83,0-3.06,0-6.12,0-9.19S251.24,182.62,251.19,179.48Z"/><path class="cls-1" d="M255.71,127a61.87,61.87,0,1,0,61.85,61.89A62,62,0,0,0,255.71,127Zm-37.36,82.27c0,3.47-1.71,5.55-4.46,5.59s-4.49-2-4.5-5.48q0-10.32,0-20.63h0c0-7.1,0-14.2,0-21.3a4.33,4.33,0,0,1,4.25-4.57,4.5,4.5,0,0,1,4.63,4.25,20.69,20.69,0,0,1,0,2.23q0,17.72,0,35.42C218.35,206.29,218.37,207.78,218.35,209.28Zm41.75-9.9c-.28,8.71-7.79,15.57-16.58,15.49a16.34,16.34,0,0,1-16.14-15.68c-.13-3.43,0-6.86,0-10.3h0c0-3.51-.12-7,0-10.52a16.32,16.32,0,0,1,16.32-15.49c8.68,0,16.1,6.84,16.38,15.45C260.32,185.34,260.32,192.37,260.1,199.38Zm41.81,0a16.38,16.38,0,0,1-32.72-.15c-.17-6.86-.16-13.74,0-20.6a16.38,16.38,0,0,1,32.73-.07c.13,3.43,0,6.87,0,10.3h0C301.94,192.35,302.06,195.86,301.91,199.36Z"/><path class="cls-1" d="M293,179.83c0-.15,0-.3,0-.45-.16-4.39-3.34-7.58-7.52-7.53a7.44,7.44,0,0,0-7.37,7.69q-.08,9.32,0,18.61a7.46,7.46,0,0,0,7.31,7.76c4.27.08,7.49-3.16,7.57-7.7.06-3.07,0-6.13,0-9.19Z"/></svg>