<svg id="Capa_1" data-name="Capa 1" xmlns="http://www.w3.org/2000/svg" viewBox="0 0 512 512"><defs><style>.cls-1{fill:#fff;}</style></defs><path class="cls-1" d="M483.19,211.69c-4,5-8.07,9.93-11.88,15.07-1.39,1.87-2.86,4.2-3,6.4-1.82,26.93-20,45.92-46.9,48.24-5.15.44-8.73,2.66-12.74,5.71-8.88,6.74-12.45,15-10.63,25.84a11.61,11.61,0,0,1,0,1.77c0,11.36-3.17,15.09-14.64,16.83q1.89,13.88,3.8,27.78c4.54,32.51,9.16,65,13.58,97.54.78,5.71,1.28,11.87-4.22,15.8-5.77,4.12-11.63,1.55-17.11-1.12q-59.1-28.85-118.11-57.9a8.91,8.91,0,0,0-8.93-.07q-58.59,28.91-117.34,57.48a34.13,34.13,0,0,1-9.51,3.26c-7.71,1.17-12.89-2.94-12.8-10.71.07-7.17,1.16-14.36,2.14-21.49,5.06-36.75,10.22-73.47,15.4-110.65-1.4-.12-2.63-.32-3.86-.32-8.69,0-17.38,0-26.08,0-9.15,0-14-4.71-14-13.84-.08-14.59-.11-29.18.05-43.77a9.06,9.06,0,0,0-3.15-7.26c-14.79-14.17-29.46-28.47-44.14-42.75a60.31,60.31,0,0,1-4.85-5.14c-6.52-8.09-4.31-16.71,5.56-19.71,4.45-1.35,5.49-3.34,5.38-7.68-.28-11,4.41-15.46,15.52-15.47,26.38,0,52.77.47,79.13-.24,10.16-.27,20.27-3.12,30.34-5.09,1.36-.27,2.64-2.12,3.49-3.52q33.88-55.91,67.68-111.86a54.57,54.57,0,0,1,4.46-6.57c6.28-7.61,15.68-7.63,22,0a57.83,57.83,0,0,1,4.71,6.93q33.72,55.74,67.33,111.55c1.52,2.51,3.41,3.54,6.09,4.34,19.87,5.93,40.26,4.16,60.53,4.6a171.79,171.79,0,0,1,25.4,2.5c9.68,1.66,17.78,6.64,24.48,14,1.54,1.69,4,2.72,6.21,3.59a39.18,39.18,0,0,0,6.87,1.57c5.89,1.1,10.7,3.8,13.78,9.14ZM258.73,321.28c3.75-.41,10-.66,16-1.85,19.38-3.83,34.29-14.06,42.17-32.56,8.38-19.69,8.69-40.16,2.59-60.48-5.6-18.62-18.26-30.92-36.79-36.83a89.65,89.65,0,0,0-49.27-1.45c-21.71,5.33-36.22,18.9-42.59,40.5-4.24,14.38-4.36,29.05-1.4,43.69,3.66,18.14,13.1,32.3,29.62,41.15C230.67,319.66,243.44,320.79,258.73,321.28Zm127.07-51.4c10.44,0,20.18.52,29.83-.12,15.73-1,29.46-6.21,36.66-21.8,3.86-8.37,4.58-17.27,3.54-26.34-1.57-13.65-7.22-24.87-20.85-29.55A78.41,78.41,0,0,0,411.74,188c-20.9-.55-41.82-.19-62.73-.19h-3.53V318.57H385.8ZM139.29,318.64V220.15h41V188H57.56v32.3h41.1v98.3Z"/><path class="cls-1" d="M283.83,252.94c-1.7,8.15-2.46,16.65-5.35,24.35-3.41,9.09-11.47,12.9-21.08,13.35-9.42.43-18.22-1.77-22.94-10.26-9.33-16.8-8.94-34.63-1.16-51.75,4.63-10.18,15.39-13.87,27.55-11.82,10.55,1.78,18.43,9.67,20.51,21,.9,4.9,1.17,9.92,1.72,14.88Z"/><path class="cls-1" d="M386,244.4V213.89c7.21.62,14.38.7,21.31,2,6,1.13,9.37,6.56,9.52,12.75s-2.92,11.68-9,13C400.93,243.26,393.71,243.51,386,244.4Z"/></svg>