<svg id="Capa_1" data-name="Capa 1" xmlns="http://www.w3.org/2000/svg" viewBox="0 0 512 512"><defs><style>.cls-1{fill:#fff;}</style></defs><path class="cls-1" d="M88.54,65.86h195a19,19,0,0,0,2.17.71c16.12,3.33,27.87,17,27.93,33.47.16,45,.05,90,.13,135,0,2.28-.89,3.07-2.84,3.78a118.61,118.61,0,0,0-12.11,5c-20.82,10.38-32.22,26-31.76,50.54.83,43.44.23,86.91.23,130.37v4.75H95.87c-22.92,0-37.5-14.54-37.5-37.39q0-85.11,0-170.21,0-60.17,0-120.31c0-12.82,5.18-23.12,16-30C78.59,68.92,83.78,67.73,88.54,65.86ZM174.23,298h-9.56c-3.22,0-6.45-.08-9.66,0a11.65,11.65,0,0,0-11.52,11.63,11.43,11.43,0,0,0,11.23,11.49q31.32.21,62.63,0c4.79,0,8.32-2.63,10.25-7A11.51,11.51,0,0,0,217,298c-6.39-.17-12.78,0-19.19,0V273c1.23.25,2.23.43,3.22.66a40.09,40.09,0,0,0,43.52-18.53c9-15.21,7.45-34.33-4.86-47.27-14.82-15.6-30.23-30.64-45.54-45.76-4.92-4.87-11.54-4.57-16.62.26-3.08,2.93-6,6-9,9-12.27,12.34-25,24.22-36.68,37.12-20,22.14-8.78,57.4,20.07,64.92,7.43,1.93,14.77,1.52,22.32-.5ZM97.06,127.72c0,3.86-.09,7.72,0,11.57a11.57,11.57,0,0,0,23.14.26q.26-11.76,0-23.53a11.57,11.57,0,0,0-23.13.13C97,120,97.06,123.87,97.06,127.72Z"/><path class="cls-1" d="M454.5,291.78c-3.41,10.75-11.62,16.61-21.38,20.78-15.38,6.57-31.67,8.89-48.19,9.78-22.66,1.2-45.13-.06-66.77-7.49a66.2,66.2,0,0,1-17.73-9.12c-13.52-10-13.37-25.37-.09-35.78,8.83-6.91,19.27-10.31,30.05-12.49,32.32-6.52,64.47-6.4,96.25,3.33a62.27,62.27,0,0,1,7.2,2.79c9.47,4.19,17.36,10,20.66,20.46Z"/><path class="cls-1" d="M454.5,361.41c-3.41,10.75-11.63,16.62-21.39,20.79-15.39,6.57-31.68,8.89-48.22,9.77-22.66,1.21-45.17,0-66.78-7.54a81.35,81.35,0,0,1-19.22-10.35c-6-4.17-8.61-10.64-8.46-18.17.19-9.27.05-18.55.05-28.36,1.67.9,3,1.59,4.28,2.31,14.75,8.27,30.84,12.23,47.42,14.24,25.76,3.13,51.45,2.65,76.92-2.82,12.54-2.7,24.48-7,35.4-13.91Z"/><path class="cls-1" d="M454.5,431.05c-3.41,10.75-11.63,16.61-21.39,20.78-15.39,6.57-31.68,8.89-48.22,9.77-22.66,1.21-45.17,0-66.78-7.53a81.75,81.75,0,0,1-19.22-10.36c-6-4.17-8.61-10.63-8.46-18.16.19-9.28.05-18.55.05-28.37,1.67.9,3,1.59,4.28,2.31,14.75,8.28,30.84,12.23,47.42,14.24,25.76,3.13,51.45,2.66,76.92-2.82,12.54-2.7,24.48-7,35.4-13.91Z"/><path class="cls-1" d="M186.93,187c2.86,3.07,5.92,6.53,9.15,9.8,8.33,8.43,16.77,16.75,25.11,25.16,7.47,7.53,7.77,17.92.8,24.77s-17,6.41-24.49-.86c-1.11-1.08-2.16-2.22-3.3-3.26-5-4.51-11.4-4.51-16.36,0-1.81,1.65-3.43,3.51-5.31,5.07a16.72,16.72,0,0,1-22.77-1.28c-6.1-6.33-6.58-16.42-.43-22.77,11.82-12.2,24-24.09,36-36.09C185.5,187.37,185.8,187.35,186.93,187Z"/></svg>