<svg id="Capa_1" data-name="Capa 1" xmlns="http://www.w3.org/2000/svg" viewBox="0 0 512 512"><defs><style>.cls-1{fill:#fff;}</style></defs><path class="cls-1" d="M216.18,285.36c-6.53,0-7.49.94-7.49,7.39q0,70.78,0,141.56c0,1.25.13,2.5.2,3.86H252V285.54c-1.48-.07-2.76-.17-4-.17Q232.05,285.34,216.18,285.36Z"/><path class="cls-1" d="M216.94,140c.22-.92.38-1.86.62-2.78,4.31-16.57,14.77-27.34,31.43-30.95s30.64,2,41.31,15.41c2.78,3.48,2.56,6.7-.24,8.72s-5.58,1.27-8.18-2.18a30.66,30.66,0,0,0-12.44-9.83c-17.75-7.67-39.19,3.83-41.42,22.29h80.74C307,117.6,285.84,93.32,255.32,94.59c-29.36,1.22-47.92,25.76-48.91,46.14h10.2A4.37,4.37,0,0,0,216.94,140Z"/><path class="cls-1" d="M85.66,232.27q0,96,0,192.1c0,1,.13,2,.2,3h16.36V210.57a24.46,24.46,0,0,0-2.52.59C91.06,214.35,85.66,222.41,85.66,232.27Z"/><path class="cls-1" d="M463.54,210c-.12-.42-.24-.85-.35-1.28-.34-1.26-.73-2.69-1.23-4.27-5.34-16.82-16.49-29.38-31.86-36.16a49.34,49.34,0,0,0-18.19-18.51C401.73,122.27,377.06,105,346.43,105h-7.88c-.21-.54-.43-1.09-.65-1.64C325.46,73.5,302.2,54.8,270.56,49.15l-.3-.1-3.71-1.15H246.77l-3,.73c-1,.25-2.25.51-3.52.78a89.13,89.13,0,0,0-12.62,3.38C201.5,62.31,183.26,80.17,174,105a176.51,176.51,0,0,0-18.91.91c-24.83,2.72-46.18,20.28-54.71,44a48.94,48.94,0,0,0-18,18.44C61.19,177.74,48,197.79,48,221.9c0,54.5,0,109.92,0,163.51v35.43c0,19.64,13.23,32.85,32.92,32.85h60.25a31.23,31.23,0,0,0,21.63,10.6c1.23.09,2.33.11,3.24.11H342.23c7.65,0,18.13,0,27-8.42a30.24,30.24,0,0,0,2.15-2.28h3.47c18.5,0,37.62,0,56.4.06h.19c17,0,25.67-9.94,29.31-15.88l3.78-6.17V213.38ZM440.12,434.73c-1.72,2.83-4.23,3.64-7.51,3.63-24.71-.11-49.43-.06-74.15-.06h-3.73C354,449,354,449,343.51,449H169.18c-1.07,0-2.14.05-3.21,0-3.3-.24-5.2-2.13-5.4-5.45-.1-1.62,0-3.26,0-5.22H82.22c-5.54,0-7.26-1.71-7.27-7.2q0-99.47,0-198.93c0-16,9.73-28.34,25.38-32.29a3.94,3.94,0,0,0,3.26-3.09c2.56-8.23,7.92-14.08,16.11-16.8,3-1,3.88-2.54,4.45-5.35,3.47-17.11,17.75-31.07,35-33,10.58-1.16,21.35-.58,32-.78,1.37,0,2.75,0,3.9,0,4-26.49,17.7-44.64,42.62-53.73,4.3-1.56,8.93-2.24,13.41-3.32H264a16,16,0,0,0,2,.61c23.74,3.83,40.31,16.91,49.53,39,2.25,5.39,3.23,11.31,4.92,17.42,8.77,0,18,0,27.24,0,22.34,0,38.9,13.43,43.58,35.32a3.72,3.72,0,0,0,2.95,3.32,24.77,24.77,0,0,1,17.07,16.73c.79,2.46,2.05,3.22,4.29,3.82,11.82,3.17,19.53,10.71,23.23,22.36.5,1.57.9,3.16,1.34,4.74Z"/><path class="cls-1" d="M429.38,230.21c-.49-9.37-7.45-17.8-16.42-19.47V427.41h16.47v-4q0-94.8,0-189.61C429.42,232.59,429.45,231.4,429.38,230.21Z"/><path class="cls-1" d="M300.37,285.37q-17.3-.06-34.59,0a21.16,21.16,0,0,0-2.61.32V438.17h43c.09-1,.22-1.68.22-2.38q0-72.21,0-144.41C306.37,286.81,304.91,285.39,300.37,285.37Z"/><path class="cls-1" d="M401.63,201.73c-1-5.7-4.32-9.51-9.87-11.79-.32,1.08-.6,1.84-.77,2.64-4.25,19.52-21.06,33.75-41,33.81q-92.53.24-185.08,0c-17.59,0-33.2-11.51-39.23-28.09-1-2.64-1.6-5.41-2.39-8.13-7.09,2.53-10.21,7.62-10.21,16.62q0,108.41,0,216.82c0,1.25.13,2.51.2,3.86h47.22V423q0-68.12,0-136.22c0-28.79,20.91-49.64,49.75-49.65q47.25,0,94.5,0a68.16,68.16,0,0,1,9.58.69c22.31,3.25,40.37,24.19,40.15,46.45,0,3.8-2.1,6.27-5.28,6.3s-5.17-2.25-5.41-5.84c-1.55-22.53-16.86-36.92-39.36-36.93H210.68c-23.46,0-39.43,15.95-39.44,39.36q0,73.45,0,146.92v3.9H198V294.11c0-1.55,0-3.1.06-4.64.55-8.63,6.57-14.72,15.22-14.76q44.22-.16,88.44,0c7.17,0,12.87,4.28,14.65,10.81a28.69,28.69,0,0,1,.72,7.41q.06,70.26,0,140.51v4.62h26.74V309.81c0-1.07-.06-2.15,0-3.21a5.32,5.32,0,0,1,10.63-.08c.1,1.06,0,2.14,0,3.21v117.6H402v-4.16q0-107.88,0-215.76A33.65,33.65,0,0,0,401.63,201.73Z"/><path class="cls-1" d="M380.39,176.45c-3.54-14.83-16.08-24.8-31.58-24.84-30.3-.08-60.6,0-90.9,0v0c-31,0-62-.17-93,.07-17.16.13-30.88,14.54-31,31.81-.14,17,13.39,32,30.29,32.12q93.39.42,186.79,0C370.65,215.48,385,195.67,380.39,176.45ZM179,200.46a20.84,20.84,0,0,1-12.14,4.6c-10.49,0-18.78-6.13-21.54-15.24A21.31,21.31,0,0,1,153.75,166a21,21,0,0,1,25.19,1c1.54,1.26,3.12,3.29,3.3,5.11.15,1.55-1.35,4.21-2.73,4.73a7.74,7.74,0,0,1-6.1-.83c-3.24-2.14-6.37-3.65-10.27-2.57a10.65,10.65,0,0,0-3.25,19.14c3.81,2.52,7.81,2.44,11.73.06a8.74,8.74,0,0,0,.88-.62c3.74-2.77,6.6-2.87,8.71-.29C183.47,194.46,182.73,197.53,179,200.46Zm38.44,4.24c-1.89.13-4.81-.88-5.63-2.32-1.41-2.47-3-2.89-5.4-2.72a34.07,34.07,0,0,1-4.63,0c-2.37-.16-4.17.08-5.32,2.78-1,2.39-3.49,3.2-6.06,2.29a5,5,0,0,1-3.52-5.85,10.53,10.53,0,0,1,.69-2.37q5.46-14.65,10.93-29.3c1-2.74,2.46-5,5.75-4.88,3.11.08,4.45,2.26,5.42,4.86,3.58,9.66,7.21,19.31,10.8,29,.41,1.1.69,2.25.89,2.92C221.38,202.31,220,204.54,217.45,204.7Zm36.19-12.41a13.4,13.4,0,0,1-13.26,12.77c-1.19,0-2.38,0-3.57,0s-2.61,0-3.92,0c-3.57-.13-5.92-2.23-6-5.28s2.31-5.27,5.85-5.39c2.13-.07,4.33.28,6.39-.12,1.34-.26,2.49-1.54,3.73-2.36-1.11-1-2.13-2.68-3.34-2.84-5.75-.74-9.81-3.55-11.82-8.94a13.33,13.33,0,0,1,10.87-17.73,28.57,28.57,0,0,1,5.7-.06,5.3,5.3,0,0,1,.1,10.58c-1.41.17-3-.24-4.24.21a4.09,4.09,0,0,0-2.35,2.54c-.13.68,1.16,1.79,2,2.45.49.38,1.37.27,2.07.38C249.06,179.59,254,185.42,253.64,192.29Zm25,2.18c2.93.61,4.65,2.44,4.55,5.46-.1,2.85-1.84,4.87-4.62,5-5.69.26-11.4.27-17.08,0-2.78-.14-4.49-2.22-4.54-5.07-.06-3,1.69-4.83,4.63-5.4a25.9,25.9,0,0,1,3-.21V173.38c-.22-.16-.3-.27-.39-.28-5.22-.54-7.51-2.39-7.24-5.87s2.7-4.94,7.69-4.95h11c4.93,0,7.39,1.64,7.59,5.05s-2.2,5.4-7.58,5.8v21.08A23.68,23.68,0,0,1,278.6,194.47Zm45.08,4.31c0,2.89-1.06,5.17-4,6.05s-4.77-.62-6.36-2.79a201.12,201.12,0,0,0-13.19-16.69c0,3.82,0,7.64,0,11.47a17.57,17.57,0,0,1-.34,4.23,4.84,4.84,0,0,1-5.55,3.92c-2.62-.25-4.61-1.83-4.64-4.55-.14-11.16-.22-22.32.11-33.47.05-1.54,2.27-3.88,3.86-4.26a6.62,6.62,0,0,1,5.46,2c4,4.82,7.56,10,11.3,15.1.61.84,1.27,1.65,1.9,2.48L313,182c0-4.48-.05-9,0-13.44.05-3.93,2.05-6.27,5.23-6.29s5.39,2.32,5.42,6.2C323.73,178.6,323.67,188.69,323.68,198.78Zm25.49,6.29a21.39,21.39,0,1,1,21.53-21.55A21.35,21.35,0,0,1,349.17,205.07Z"/><path class="cls-1" d="M349.38,173a10.69,10.69,0,0,0-.18,21.38,10.69,10.69,0,1,0,.18-21.38Z"/><path class="cls-1" d="M201.92,188.79h4.38L204.06,183C203.12,185.54,202.57,187,201.92,188.79Z"/></svg>