<svg id="Capa_1" data-name="Capa 1" xmlns="http://www.w3.org/2000/svg" viewBox="0 0 512 512"><defs><style>.cls-1{fill:#fff;}</style></defs><path class="cls-1" d="M264.19,21.6c4.26.93,8.67,1.43,12.73,2.9,6.65,2.41,13.43,4.83,19.53,8.32,44,25.14,87.76,50.55,131.61,75.88a78.94,78.94,0,0,1,27.31,25.92c-5.06,3.23-9.86,6.32-14.68,9.36q-81,51.06-161.87,102.19c-12.55,8-24.09,8.05-36.71,0q-89.43-56.74-179.2-112.95c-1-.64-2-1.3-3.52-2.28,1-1.4,1.69-2.93,2.85-3.92,7.31-6.26,14.05-13.55,22.23-18.38C128,83,171.8,58,215.53,32.74a79.3,79.3,0,0,1,30.22-10.41,10.18,10.18,0,0,0,2.09-.73ZM225.1,125.35a30.92,30.92,0,1,0,31-30.77A30.95,30.95,0,0,0,225.1,125.35Z"/><path class="cls-1" d="M53.05,141c3.93,2.44,7.64,4.71,11.33,7q86.75,54.63,173.55,109.19c4.79,3,10.28,4.89,16,7.56V486.53A74.47,74.47,0,0,1,218.37,477q-45.87-26.23-91.57-52.74c-14-8.08-28.11-16-42-24.28C58.5,384.33,44.4,361.26,44.21,330.56c-.31-51-.08-102-.08-153A76.54,76.54,0,0,1,53.05,141ZM115.9,359c-.61-4.3-.8-7.66-1.59-10.87-3.65-14.79-10.14-28-23.32-36.56-9.78-6.37-18.26-2.38-20.38,9.05-3.21,17.33,8.51,43.8,23.53,53A24.48,24.48,0,0,0,99.06,376c6.43,2.17,12-.1,14.41-6.43C114.86,366,115.24,362,115.9,359Zm94.82-45.89c-1.32-16.71-7.53-31.72-20.52-43.49a27.87,27.87,0,0,0-8.06-4.93c-6.91-2.81-12.67-.2-15.35,6.75a21.93,21.93,0,0,0-1.57,7c-.54,18.63,6.42,34.25,19.78,47,4.81,4.57,10.7,8.32,17.61,5.31C209.82,327.61,210.11,320.44,210.72,313.13Z"/><path class="cls-1" d="M266.24,485.89V265.15c28.31-12.41,52.64-31,78.54-47,37.72-23.23,75-47.18,112.48-70.81,1.14-.72,2.32-1.39,3.69-2.2,4,8.46,6.47,17.18,6.65,26.31.35,18.3.28,36.62.3,54.93,0,33.59-.12,67.19.05,100.79.17,32.93-14,57.44-42.46,73.84q-64.24,37-128.44,74.15A80.24,80.24,0,0,1,266.24,485.89ZM444.41,328.56c-.32-7.66-.36-15.05-7.66-18.45-7.49-3.49-13.26,1.26-18.72,5.8-.23.19-.44.41-.66.62-8.63,8.52-14,18.88-16.93,30.54-1.83,7.26-2.67,14.62,0,21.88s8.6,10,15.62,7a31,31,0,0,0,9.41-6.11A62.69,62.69,0,0,0,444.41,328.56ZM444.54,214c-.44-2.35-.69-6.19-1.91-9.69-2.45-7-8.45-9.73-15.28-6.82a33,33,0,0,0-9.75,6.41,58.83,58.83,0,0,0-18,35.76A45.9,45.9,0,0,0,400.91,257c1.81,6.64,8.16,9.26,14.56,6.61A33.09,33.09,0,0,0,426,256.72C437.35,245.37,443.27,231.43,444.54,214ZM340.61,395.25c-.5-7.48-.71-14.84-8.1-18.07-7.13-3.12-12.73,1.3-18,5.6a7.68,7.68,0,0,0-.67.61c-11.83,12.06-18.5,26.4-18.81,43.4-.12,6.69.9,13.53,7.86,16.57,6.7,2.92,12.45-.67,17.29-5.05C333.05,426.66,339.23,411.78,340.61,395.25Zm-45.74-83.47c.32,8.24.56,15.49,7.86,18.89,6.68,3.12,12.48-.44,17.28-4.82,13.16-12,20-27.15,20.37-44.93.14-6.48-1-13.18-7.69-16.24s-12.45.51-17.29,4.85C302.46,281.11,296.25,296,294.87,311.78Z"/></svg>