<svg id="Capa_1" data-name="Capa 1" xmlns="http://www.w3.org/2000/svg" viewBox="0 0 512 512"><defs><style>.cls-1{fill:#fff;}</style></defs><path class="cls-1" d="M397.54,178H59.71c-21.1,0-38.21,47.83-38.21,106.82S38.61,391.6,59.71,391.6v.87H397.54v-.87c21.1,0,38.21-47.82,38.21-106.82S418.64,178,397.54,178ZM165.81,364.24H78.38S66,338.19,66,285.22s12.35-79.41,12.35-79.41h87.43s-8,24.69-8,79.41S165.81,364.24,165.81,364.24Zm106.5,0H185.77S178.3,332.6,178.3,285s8.87-79.22,8.87-79.22h86a579.15,579.15,0,0,1,5.91,79.41A497.19,497.19,0,0,1,272.31,364.24Zm107.81,0H292.7s8-24.31,8-79-8-79.41-8-79.41h87.42s12.35,26.43,12.35,79.41S380.12,364.24,380.12,364.24Z"/><path class="cls-1" d="M438.79,337.32s6.08-18.23,6.08-57.31-6.08-49.15-6.08-49.15h9.14v21.88s-1.33,9.9,13.44,9.9,14.76-9.56,14.76-9.56V235.89S493.5,248.74,493.5,287s-19,48.64-23.4,50.37S438.79,337.32,438.79,337.32Z"/><circle class="cls-1" cx="461.37" cy="103.71" r="21.71"/><path class="cls-1" d="M453.55,132.37V250.48h.15a7.63,7.63,0,0,0,14.47,0h.15V132.37Z"/><path class="cls-1" d="M124.64,263.08H89.91V248h53.93v11c-18,21.62-20.45,36.25-21.87,66.45h-18C105.37,299.71,110,283.38,124.64,263.08Z"/><path class="cls-1" d="M236.67,263.08H201.94V248h53.93v11c-18,21.62-20.45,36.25-21.87,66.45H216C217.4,299.71,222,283.38,236.67,263.08Z"/><path class="cls-1" d="M350.44,263.08H315.7V248h53.94v11c-18,21.62-20.46,36.25-21.88,66.45h-18C331.16,299.71,335.78,283.38,350.44,263.08Z"/></svg>