<svg id="Capa_1" data-name="Capa 1" xmlns="http://www.w3.org/2000/svg" viewBox="0 0 512 512"><defs><style>.cls-1{fill:#fff;}</style></defs><path class="cls-1" d="M371.68,240.29a4.93,4.93,0,0,0-.94,3.56,111.37,111.37,0,0,1-2.58,36.67c-12.94,55.89-65.63,94-122.88,89.06a6.69,6.69,0,0,0-4.64,1.75c-11.3,11.08-22.43,22.32-33.64,33.48-3.24,3.22-6.59,6.33-10.07,9.66C246.65,434,318.54,428.93,371.87,379c55.43-51.87,65.27-127,44-183.12C401,210.85,386.27,225.52,371.68,240.29Z"/><path class="cls-1" d="M468,237l-.27-1.23a209.91,209.91,0,0,0-15.81-64.24,42.32,42.32,0,0,0-8.18-12.86q2.55-2.61,5-5.2A34.74,34.74,0,0,0,437.2,97.55a35.23,35.23,0,0,0-11.82-2.84A36.19,36.19,0,0,0,414.7,84a35.11,35.11,0,0,0-37.85-32.79,37.2,37.2,0,0,0-22.69,11l-3.42,3.39a38.8,38.8,0,0,0-11.23-7.4,200,200,0,0,0-46.95-14.06C287.2,43.27,282,42.6,277,42c-2.12-.27-4.24-.54-6.35-.83l-1.87-.25H240.93l-2.69.53-1.32.29c-48.15,4.23-90.38,22.78-125.54,55.16C70,134.93,46.9,182.66,42.65,238.72a209.49,209.49,0,0,0,16.59,99.22,38.87,38.87,0,0,0,7.56,11.58c-1.17,1.19-2.35,2.37-3.53,3.56-9.05,9.17-11,18.76-11.08,25.2-.06,6.6,1.81,16.43,11.08,25.73,13.84,13.9,28,28.05,42.07,42.06,9,9,18.64,11,25.1,11h.34c6.54,0,16.1-1.91,25.15-10.78,1.3-1.28,2.62-2.57,3.93-3.88a41.62,41.62,0,0,0,12.77,8.17,213.16,213.16,0,0,0,82.24,16.67,220,220,0,0,0,49.52-5.74c82.32-19,147-87.68,160.91-170.94.86-5.14,1.51-10.13,2.13-15q.39-3.12.81-6.24l.26-1.87V239.72ZM356.47,99.09q8.52-8.62,17.16-17.16c3.88-3.84,7.94-4.19,11.15-1.08s3,7.39-1,11.41c-4.17,4.18-8.43,8.27-12.79,12.54,4.09,4.1,7.74,7.78,12,12,2.44-2.68,4.74-5.45,7.3-8,3.4-3.36,7.63-3.51,10.63-.63s3,7.33-.46,10.91c-2.43,2.51-5.05,4.83-7.38,7,4,4,7.76,7.72,11.74,11.7,4-4.05,8.45-8.48,12.87-12.9,2.43-2.42,5.22-3.46,8.55-2a7.05,7.05,0,0,1,2.37,11.46c-6.31,6.66-12.82,13.13-19.46,19.45-3.25,3.1-7.25,2.54-10.89-1.08q-13.74-13.67-27.42-27.39c-4.78-4.78-9.59-9.54-14.33-14.36C352.5,107,352.49,103.12,356.47,99.09Zm-15.9,16.22c3.7-2.31,7.86-1.17,10.44,3.1q16,26.47,31.83,53c2.21,3.71,1.85,7.07-.76,9.59s-5.88,2.75-9.63.51q-26.37-15.79-52.7-31.65c-4.33-2.61-5.56-6.67-3.33-10.39s6.41-4.58,10.73-2c9,5.32,18,10.75,27,16.13l.63-.61c-.61-1.11-1.19-2.26-1.84-3.35-4.77-8-9.6-15.89-14.31-23.89C336.13,121.58,337,117.55,340.57,115.31ZM319.35,216.39a7.75,7.75,0,0,0-9.88-4.33c-2.85,1-5.58,2.29-8.39,3.37-11.86,4.59-24.5-.56-29.3-11.9s.24-23.95,11.86-29.26a32.37,32.37,0,0,1,5-2,7.18,7.18,0,0,1,5.14,13.35c-1.49.79-3.13,1.28-4.64,2a7.83,7.83,0,0,0,6,14.46c4.32-1.49,8.49-3.67,12.92-4.56a22,22,0,0,1,26.32,22.11c-.33,12.26-8.44,19.6-19.5,22.51-3.18.83-6.57-1.33-7.81-4.5a7.11,7.11,0,0,1,3.06-8.79c1.67-1,3.55-1.51,5.26-2.39A7.8,7.8,0,0,0,319.35,216.39Zm-125,74.19c4,3.23,4.6,7.36,1.92,10.77s-6.81,3.63-10.88.6-8.58-3-11.67.42-2.78,8.09.76,11.69q10.26,10.47,20.73,20.73c3.62,3.56,8.38,3.79,11.69.81s3.57-7.49.46-11.68-2.83-8.15.58-10.87,7.42-2,10.78,1.86a22.69,22.69,0,0,1-1.14,30.6c-8.31,8.39-22.06,9.15-30.82,1.08-8.33-7.67-16.22-15.85-24.09-24-3.91-4.05-5.58-9.22-5.52-14.92.35-9.38,4.6-16.42,13.17-20.34S187.07,284.65,194.38,290.58ZM171.19,177.34a7.18,7.18,0,0,1,6.89-7.32,7.29,7.29,0,0,1,7.55,7.06,7.22,7.22,0,1,1-14.44.26Zm22,97c-3.78-3.79-4-8-.82-11.15s7.45-2.64,11.17,1.07q17.19,17.11,34.31,34.32a33.2,33.2,0,0,1,2.72,3.75c5-5.1,9.1-9.36,13.28-13.53,3.78-3.77,8-4.16,11.17-1.16s2.95,7.48-1,11.44q-8.41,8.51-16.91,16.9c-4.26,4.23-8,4.27-12.21.09Q214.08,295.22,193.23,274.32Zm68.27-2.78C250,260.66,239,249.33,227.85,238.09a7,7,0,0,1,0-10.34c3-2.87,7.29-2.72,10.65.61,10.12,10,20.16,20.13,30.24,30.2a25.67,25.67,0,0,0,2.93,2.69,8,8,0,0,0,10.55-.92A8.07,8.07,0,0,0,283,250a26.86,26.86,0,0,0-2.92-3.21c-9.81-9.83-19.72-19.56-29.36-29.54-1.68-1.74-3.24-4.67-3-6.84s2.44-4.63,4.46-5.88c2.49-1.55,5.42-.62,7.6,1.52,4.57,4.48,9.08,9,13.61,13.54l18.69,18.7c4.66,4.68,7.06,10.28,6.84,18.86-.49,7.45-4.82,14.45-13.49,18.19S268.33,278,261.5,271.54Zm41-105.56a16,16,0,0,1-2.33-2.75,7.08,7.08,0,0,1,1.15-8.94,7.3,7.3,0,0,1,9-.69,18.32,18.32,0,0,1,2.42,2.16c13.59,13.56,27.21,27.1,40.71,40.75,1.69,1.7,2.81,4,4.59,6.54-1.74,2.37-2.86,4.67-4.66,6.12-2.22,1.8-5,1.5-7.45-.1a18.57,18.57,0,0,1-2.73-2.36Q322.84,186.35,302.49,166ZM70.26,240.81c3.72-49,23.76-90.34,59.88-123.59,31.16-28.69,68.12-44.57,110.37-48a26.29,26.29,0,0,0,3.16-.61h23.19c7,1,14.1,1.74,21.09,2.92a171.17,171.17,0,0,1,40.44,12.11c6,2.63,7.17,8.12,2.59,12.73q-27.21,27.36-54.53,54.6a8.51,8.51,0,0,1-7.55,2.58A102.66,102.66,0,0,0,208.52,164c-4.37,2.22-8.66.72-10.45-3.19s-.17-7.62,4.15-9.8a115.21,115.21,0,0,1,63.06-12.43,5.86,5.86,0,0,0,4.13-1.28c14.35-14.17,28.58-28.45,42.84-42.72a11.37,11.37,0,0,0,.86-1.12c-49.69-19.39-120.9-14-173.93,35.16-56,52-65.82,127.29-44.63,183.33.83-.72,1.63-1.33,2.34-2,13.67-13.65,27.29-27.35,41-40.94a6,6,0,0,0,1.9-5.41c-1.95-22.08,2.4-42.95,12.43-62.67,2.19-4.31,6.08-5.76,9.88-3.94s5.23,6.08,3,10.5a102.43,102.43,0,0,0-11.26,49.94c.1,3.61.93,7.24.72,10.82-.13,2.32-.9,5.2-2.45,6.77q-27.19,27.63-54.75,54.89c-4.56,4.53-10.08,3.24-12.68-2.84A181.32,181.32,0,0,1,70.26,240.81ZM156.65,405a10.39,10.39,0,0,1-2.45,3.9q-8.73,8.94-17.65,17.68c-3.94,3.86-7.72,3.82-11.67-.12q-21-20.94-42-42c-4-4.06-4-7.79.1-11.93q8.64-8.76,17.41-17.41c3.53-3.48,7.88-3.71,10.91-.73s2.83,7.39-.63,10.91c-4.3,4.37-8.71,8.62-13.13,13L109.89,390c1.94-2.19,4.12-4.88,6.54-7.33,3.62-3.66,7.76-3.94,10.9-1s3,7.37-.63,11.18q-1.74,1.85-3.59,3.58c-1.23,1.15-2.52,2.24-3.47,3.08l11.76,11.93c4.17-4.23,8.57-8.83,13.11-13.29a7.21,7.21,0,0,1,9-1.31A6.92,6.92,0,0,1,156.65,405Zm13-12a7,7,0,0,1-8.62-1.29,12.82,12.82,0,0,1-2.13-3.72c-3.17-7.94-6.33-15.89-9.34-23.89a6.66,6.66,0,0,0-4.28-4.36c-8-3-16-6.17-23.91-9.3-5-2-7.06-5.67-5.54-9.74,1.6-4.28,5.65-5.7,10.81-3.74,4.57,1.73,9.12,3.53,14.36,5.56-2.2-5.75-4.33-10.82-6.07-16-1.9-5.63,2.89-11,8.4-9.22a10.24,10.24,0,0,1,5.32,5.23c3.52,8.05,6.43,16.37,9.83,24.47a7.76,7.76,0,0,0,3.78,3.78c8.33,3.48,16.81,6.61,25.19,10,3.74,1.51,5.34,4.33,4.82,8a6.55,6.55,0,0,1-5.89,6,11.44,11.44,0,0,1-5.22-.91c-4.61-1.64-9.14-3.49-14.38-5.52,2.23,5.81,4.28,10.89,6.12,16A7.07,7.07,0,0,1,169.64,393ZM440.81,265.67c-.93,6.79-1.69,13.62-2.82,20.38-12.09,72.29-68.35,132-139.83,148.53q-59,13.59-114.93-9.53c-7.51-3.11-8.52-8.43-2.76-14.19,17.59-17.6,35.23-35.14,52.74-52.8a10.48,10.48,0,0,1,9.38-3.36c28.35,3.22,54.1-3.58,76.16-21.74,27.87-22.94,40.42-52.82,37.3-88.9-.49-5.66.7-9.73,4.87-13.79,17.2-16.78,34.07-33.9,51.06-50.89,5.93-5.92,11.12-4.87,14.38,2.88a181.54,181.54,0,0,1,13.83,57.05,26.88,26.88,0,0,0,.62,3.17Z"/></svg>