<svg id="Capa_1" data-name="Capa 1" xmlns="http://www.w3.org/2000/svg" viewBox="0 0 512 512"><defs><style>.cls-1{fill:#fff;}</style></defs><path class="cls-1" d="M76.15,114.1c.14.17.23.41.41.5,7.59,3.79,9.18,10,4.21,16.87a89.14,89.14,0,0,0-15.64,36q-7.27,38.7,15.27,71.06c2.06,3,3.82,5.94,3,9.68-.95,4.21-3.54,7.06-7.82,8s-8-.71-10.63-4.3a107.37,107.37,0,0,1-18.87-40.84c-7.31-33-1.4-63.38,18-91,1.66-2.37,4.41-4,6.66-5.92Z"/><path class="cls-1" d="M440.86,114.1c2.64,2.5,5.78,4.65,7.83,7.57,27.05,38.51,26.29,91.81-1.62,129.69-2.72,3.69-6.13,5.72-10.72,4.89-4.28-.76-7-3.5-8.06-7.72-.92-3.6.45-6.59,2.52-9.45a89,89,0,0,0,16.27-39.65q5.52-37.05-16.1-67.67c-2.84-4-4.33-8.16-1.48-12.49,1.39-2.11,3.92-3.47,5.94-5.17Z"/><path class="cls-1" d="M428,189.32c-.18,13.51-5.89,29.05-17.32,42.46-4.26,5-10.41,5.77-14.95,1.93s-4.8-9.92-.58-15.06c16.75-20.41,16.77-46.32.07-66.65-4.27-5.19-4.09-11.19.43-15.07s10.76-3.15,15.19,2C422,152,428,168.18,428,189.32Z"/><path class="cls-1" d="M83.53,184.9a70.78,70.78,0,0,1,17.56-46.31c4.13-4.8,10.24-5.5,14.73-1.76s5.05,10,.84,14.77a51,51,0,0,0,.08,67.48,10,10,0,0,1-1,14.75c-4.45,3.59-10.48,2.94-14.49-1.69C89.54,218.63,83.71,202.9,83.53,184.9Z"/><path class="cls-1" d="M280.44,38a13.75,13.75,0,0,1,13.85,10.92q4.09,17.26,8.1,34.54,19.13,81.77,38.23,163.51c2.2,9.42-1.77,16-11.2,18.19q-64.2,15-128.41,30c-3.87.9-7.72,1.86-11.61,2.7-8.46,1.83-15.11-2.37-17.07-10.78Q166,260,159.71,233,142.86,161,126,89c-2.1-9,1.9-15.52,10.91-17.64q70-16.45,140-32.82C278.32,38.23,279.76,38.08,280.44,38ZM247.36,200.65c1.12.11,1.57.13,2,.2a31.14,31.14,0,0,0,33.95-18.95c5.47-13.48,1.1-29.31-11.08-37.23C256,134.14,239.47,124.17,223.05,114c-1.86-1.16-3.39-.87-4.58,1.06-10.14,16.56-20.52,33-30.37,49.72-7.32,12.45-4.31,28.27,6.51,38.06A31.24,31.24,0,0,0,233,205.33c.82-.56,1.62-1.13,2.76-1.92-1.2,6.46-2.38,12.39-3.34,18.36a3.89,3.89,0,0,0,1,3.23,3.82,3.82,0,0,0,3.39-.21,28.52,28.52,0,0,1,18.63-4.34,3.93,3.93,0,0,0,3.1-1.42c.45-.68,0-2.16-.42-3.16a11.6,11.6,0,0,0-1.69-2.44C253.53,209.32,250.62,205.22,247.36,200.65Zm-99-84.7h.05a21.71,21.71,0,0,1-.17,2.43c-.42,2.44.69,3.57,3,3.72,2.62.16,3.54-.68,3.66-3.38.25-5.72.25-5.72,6-7s5.93-1.38,8.69,3.69c1.19,2.17,2.6,2.53,4.63,1.42,2.24-1.22,2.59-2.51,1.24-4.83-5.3-9.14-10.65-18.24-15.91-27.4-1.22-2.12-2.82-2.88-5.17-2.33s-3.89,1.52-4.06,4.26C149.78,96.31,149,106.13,148.35,116Z"/><path class="cls-1" d="M238.92,291.87,259.67,287q35.73-8.38,71.44-16.76c11.83-2.8,17.65-12.29,14.89-24.09Q324.36,153.6,302.7,61c-.08-.35-.12-.7-.24-1.41.93-.08,1.77-.19,2.61-.2q19.79-.15,39.59-.26c11.78-.05,18.84,6.84,18.9,18.56q.56,97.9,1,195.83c.06,11-7.15,18.15-18.17,18.21q-53.15.32-106.3.58H239Z"/><path class="cls-1" d="M222,119.67c12.14,7.52,23.95,14.84,35.75,22.17,3.68,2.29,7.42,4.5,11,6.92A25.72,25.72,0,0,1,242.56,193c-3.33-1.7-4-1.53-6.25,1.58a25.69,25.69,0,0,1-34.71,6.78C190,193.9,186,178.92,193,167.05,202.37,151.2,212.2,135.62,222,119.67Z"/><path class="cls-1" d="M250.55,214.47l-11.84,2.76,2.86-15.3Z"/><path class="cls-1" d="M164.22,105.39l-8.83,2.09c.25-5.37.49-10.49.72-15.61l.52-.15Z"/><path class="cls-1" d="M80.68,446.57V316.41a8.24,8.24,0,0,0,.5-1.24c4.2-16.6,15.16-25.2,32.14-25.2q141.32,0,282.62,0c18.7,0,31.83,13.07,31.85,31.71q0,59.81,0,119.62a36,36,0,0,1-1.09,9C423,464.37,411.06,473,395.6,473H168.22c-19,0-37.95.07-56.93,0a30.53,30.53,0,0,1-29.06-20.92C81.63,450.27,81.19,448.41,80.68,446.57ZM345.93,351c10.17,0,20.09.06,30,0,6,0,10.48-4.46,10.48-10.15S382,330.7,376,330.67q-20-.1-40,0c-6.17,0-10.49,4.29-10.5,10.45q-.07,40.32,0,80.66c0,6.18,4.28,10.49,10.42,10.53q20,.12,40,0c6.06,0,10.52-4.39,10.57-10.07S382,412.05,375.69,412c-8.81-.05-17.62,0-26.44,0-1.09,0-2.17-.1-3.23-.15V391.66c10.19,0,20.12.1,30.05,0,8.22-.11,13.05-8.6,8.85-15.39-2.15-3.46-5.4-4.94-9.44-4.92-9.8,0-19.59,0-29.55,0ZM275,378.48l-.75,0c-.33-1.14-.71-2.28-1-3.43-3-11.92-5.93-23.85-8.93-35.76-1.55-6.19-6.73-9.72-12.24-8.45-6,1.38-9.07,6.85-7.45,13.36q9.85,39.72,19.8,79.41c1.39,5.54,5.21,8.73,10.2,8.69s8.66-3.18,10-8.52q10-40,19.93-80.07a12.05,12.05,0,0,0,.08-5.31,9.9,9.9,0,0,0-9.81-7.77c-4.86,0-8.68,3.19-10,8.49Q279.89,358.79,275,378.48ZM142.38,412v-4.12q0-33.22,0-66.43c0-6.28-4.37-10.81-10.18-10.8s-10.09,4.55-10.13,10.85c0,7.11,0,14.23,0,21.35q0,29.31,0,58.63c0,6.17,4,10.73,9.79,10.79,13.78.16,27.57.14,41.35,0,4.33,0,7.48-2.4,9.11-6.45,2.71-6.72-2.17-13.73-9.69-13.8C162.68,411.92,152.76,412,142.38,412Zm61-30.89q0,20,0,39.95c0,6.61,4.13,11.19,10,11.27s10.28-4.57,10.29-11.37q0-39.43,0-78.87c0-6.84-4.18-11.47-10.22-11.44s-10.1,4.65-10.11,11.53Q203.37,361.65,203.39,381.11Z"/></svg>