<svg id="Capa_1" data-name="Capa 1" xmlns="http://www.w3.org/2000/svg" viewBox="0 0 512 512"><defs><style>.cls-1{fill:#fff;}</style></defs><path class="cls-1" d="M406.5,86c-2.28,5.84-6,9.89-12.75,10A12.74,12.74,0,0,1,381,85a12.79,12.79,0,0,1,24.16-7.35c.45.91.88,1.83,1.31,2.75Z"/><path class="cls-1" d="M109.18,99.56l4.17-3.18c3.06,2.38,6,5.08,9.27,7.12,5.18,3.2,10.39,6.61,16,8.77,12.33,4.74,22.2.8,28.67-10.73,1.41-2.52,1.79-6.07,3.81-7.66s5.4-.81,8.09-1.49a55.82,55.82,0,0,0,6.91-2.65c2.43,2,4.79,4.19,7.42,6,10.2,7.11,20.88,6.43,30.19-1.82,6.58-5.84,11.07-13.15,14.55-21.11.9-2.06,1.88-2.65,4.17-2.34a37.82,37.82,0,0,0,9,0c2-.21,2.76.23,3.78,2a176.37,176.37,0,0,0,11.19,17.85,25.42,25.42,0,0,0,15.72,10c7.88,1.52,14.46-1.46,20.47-6.18,1.79-1.41,3.43-3,5.34-4.68a20.33,20.33,0,0,0,13.51,3.47c.56,0,1.43.91,1.79,1.6,1.54,2.93,2.69,6.09,4.45,8.87,6,9.55,14.94,12.77,25.81,9.6,8.23-2.41,15.13-7.18,21.76-12.4,1.71-1.34,3.36-2.75,5.17-4.23l4.32,3.19C369,133.18,355.8,167.39,359.11,205.77H134.76C138.12,167.43,124.89,133.23,109.18,99.56ZM247,175.65a14.84,14.84,0,1,0-14.85-14.92A15,15,0,0,0,247,175.65ZM200.85,161a14.76,14.76,0,1,0-15,14.67A14.85,14.85,0,0,0,200.85,161Zm121.7.26a14.76,14.76,0,1,0-14.94,14.41A14.78,14.78,0,0,0,322.55,161.24Z"/><path class="cls-1" d="M246.8,20.82a22.25,22.25,0,1,1-22.12,22.3A22.31,22.31,0,0,1,246.8,20.82Z"/><path class="cls-1" d="M175,87.25a12.78,12.78,0,1,1,12.73-12.63A12.75,12.75,0,0,1,175,87.25Z"/><path class="cls-1" d="M318.8,87.25a12.77,12.77,0,1,1,12.91-12.77A12.75,12.75,0,0,1,318.8,87.25Z"/><path class="cls-1" d="M100.25,96A12.77,12.77,0,1,1,113,83.31,12.75,12.75,0,0,1,100.25,96Z"/><path class="cls-1" d="M319.05,216.74H168.92a34.83,34.83,0,0,0-34.83,34.84V456.21a34.83,34.83,0,0,0,34.83,34.84H319.05a34.84,34.84,0,0,0,34.84-34.84V251.58A34.84,34.84,0,0,0,319.05,216.74Zm1.3,192.94q0,9-4,13.48a13.68,13.68,0,0,1-10.75,4.5,13.4,13.4,0,0,1-10.39-4.5q-4.06-4.49-4.06-13.48V301.36L266,401.33q-2.46,9.74-4,14.29a19.65,19.65,0,0,1-5.73,8.29q-4.17,3.75-11.55,3.75a16.95,16.95,0,0,1-15.42-8.56,35.11,35.11,0,0,1-3.37-8.3q-1.23-4.55-2.51-9.47l-25.16-100V409.68q0,9-4,13.48a14.73,14.73,0,0,1-21.14.06Q169,418.78,169,409.68V285.52q0-10.27,5.36-13.86t14.44-3.59h9.85q8.88,0,12.9,1.61a10.87,10.87,0,0,1,5.94,5.78,89.83,89.83,0,0,1,4.39,13.59L244.68,375l22.79-85.95a89.83,89.83,0,0,1,4.39-13.59,10.87,10.87,0,0,1,5.94-5.78q4-1.6,12.9-1.61h9.85q9.09,0,14.45,3.59t5.35,13.86Z"/></svg>