<svg id="Capa_1" data-name="Capa 1" xmlns="http://www.w3.org/2000/svg" viewBox="0 0 512 512"><defs><style>.cls-1{fill:#fff;}</style></defs><path class="cls-1" d="M40.65,351.76V62.2q4.43-14.08,18.52-18.52H453.1c14,4.65,18.73,14.65,18.68,29-.31,91.14-.16,182.29-.16,273.43v5.47H46.53C44.57,351.62,42.61,351.71,40.65,351.76ZM172.94,125.35c-6.58-1.82-11.85-4.46-17.16-4.55q-38.26-.66-76.56-.09c-14,.2-23.2,10.12-23.22,24.11Q55.88,205.41,56,266a23.57,23.57,0,0,0,5.11,15.24c5.26,6.54,12.31,8.84,20.45,8.82q34.29-.07,68.58,0c7.72,0,15.18-.43,21.36-6.18,5.92,5.43,12.9,6.3,20.22,6.17,6.45-.12,12.9,0,19.35,0h14.26c0,7.32,0,14.15,0,21,.1,15.72,9.46,25,25.24,25,22.72,0,45.44-.08,68.15.06,8,0,15.74,0,22.08-6,5.69,5.06,12.16,6,19.1,6,23.56-.15,47.13-.05,70.69-.06,16.49,0,25.71-9.28,25.72-25.85q0-58.69,0-117.39c0-16.7-9.36-26.06-26.05-26.07-22.72,0-45.44.08-68.16-.06-7.74,0-15.15.55-21.31,6.1-5.83-5.12-12.58-6.28-19.8-6.08-5.75.16-11.5,0-17.25,0H287.2c-.1-1.81-.22-3.18-.23-4.55,0-5.47,0-10.94,0-16.41-.11-15.67-9.48-25.12-25.22-25.18-23.7-.09-47.4,0-71.1,0C183.71,120.52,177.21,121.56,172.94,125.35Zm83.19-35.43q-94.06,0-188.11,0c-1.41,0-2.81,0-4.21,0-4.59.24-7.85,3.5-7.77,7.72s3.2,7.22,7.56,7.5c1.26.08,2.53,0,3.79,0H444.88c1,0,2,0,2.94,0,5-.15,8.33-3.15,8.41-7.53s-3.3-7.56-8.2-7.73c-1.26-.05-2.52,0-3.79,0Q350.19,89.91,256.13,89.92ZM109.79,66.59a7.64,7.64,0,0,0-7.86-7.51,7.79,7.79,0,0,0-7.38,7.64,7.7,7.7,0,0,0,7.72,7.68A7.5,7.5,0,0,0,109.79,66.59Zm23,7.82a7.79,7.79,0,0,0,7.9-7.55A7.91,7.91,0,0,0,133,59.07a7.65,7.65,0,0,0-7.57,7.38A7.54,7.54,0,0,0,132.8,74.41ZM79.13,67a7.91,7.91,0,0,0-7.59-7.9,7.78,7.78,0,0,0-7.73,7.28,7.63,7.63,0,0,0,7.32,8A7.77,7.77,0,0,0,79.13,67Z"/><path class="cls-1" d="M40.65,366.92H471.08c0,9.43.9,18.72-.24,27.75-1.34,10.69-10.66,17.84-21.51,18.42-1.68.09-3.36.05-5.05.05q-187,0-374.08.17c-14.44,0-24.75-4.38-29.55-18.62Zm215.12,30.85c7.28,0,14.57.08,21.85,0,5.71-.07,9.14-3,9.24-7.6s-3.51-7.89-9.35-7.91q-21.43-.08-42.86,0c-5.64,0-9.14,3-9.24,7.6-.1,4.77,3.43,7.84,9.34,7.91C241.76,397.84,248.76,397.78,255.77,397.77Z"/><path class="cls-1" d="M379,474.5H133.51a14.39,14.39,0,0,1,12.83-15,36.63,36.63,0,0,1,3.78-.12H362.2C372.4,459.36,378.77,465,379,474.5Z"/><path class="cls-1" d="M317.48,428.72v14.8H194.9v-14.8Z"/><path class="cls-1" d="M163.71,205.3q0,29.67,0,59.34c0,7.41-2.42,9.82-9.8,9.83q-36.41,0-72.81,0c-7.07,0-9.6-2.5-9.6-9.63q0-59.55,0-119.1c0-7.13,2.52-9.6,9.61-9.61q36.62,0,73.23,0c6.83,0,9.36,2.54,9.37,9.41Q163.75,175.42,163.71,205.3ZM79.2,191.81c-.19,8.84,3.23,16.37,8.6,23.12,7,8.84,16.12,15.13,26.14,20,2,1,5.66,1.06,7.48-.11a215.65,215.65,0,0,0,22.7-16.36,34.32,34.32,0,0,0,11.41-20.57c1.81-10.39-.3-19.63-9.19-26.21-8.56-6.34-17.58-6.2-26.83-1.19a5.42,5.42,0,0,1-4.35-.3C98,161.08,79.05,172.4,79.2,191.81Z"/><path class="cls-1" d="M348.56,251.52q0-29.65,0-59.33c0-7.46,2.38-9.88,9.74-9.89q36.4,0,72.81,0c7.12,0,9.66,2.48,9.66,9.58q0,59.55,0,119.09c0,7.15-2.56,9.7-9.56,9.71q-36.62,0-73.23,0c-6.81,0-9.41-2.59-9.42-9.4Q348.53,281.4,348.56,251.52Zm65.73,23.13a9.65,9.65,0,0,1,1.36-.78c10-3,16.13-9.54,17.22-20,1.12-10.64-3.58-18.34-13.1-23.26a5,5,0,0,1-2-3.52c-1.31-12.55-10.5-21.37-22.76-21.63-12-.25-21.95,8.48-23.29,20.92-.29,2.62-1.31,3.76-3.46,5-8.53,4.74-12.67,12.18-11.93,21.9.71,9.34,5.73,15.87,14.33,19.6,1.37.59,2.79,1.08,4.37,1.69-.33,1.47-.61,2.67-.86,3.88-2,9.79,4,18.22,13.86,19.14a70.17,70.17,0,0,0,13.44,0c9.27-.94,14.95-8.43,13.8-17.68C415.08,278.2,414.66,276.57,414.29,274.65Z"/><path class="cls-1" d="M271.45,205.34q0,29.46,0,58.91c0,7.95-2.29,10.22-10.27,10.22h-72c-7.62,0-10-2.38-10-10.09q0-59.13,0-118.25c0-7.66,2.38-10,10.07-10q36.19,0,72.39,0c7.36,0,9.75,2.42,9.76,9.87Q271.48,175.67,271.45,205.34Zm-66.66,26.19c-.08,1.23-.17,2.34-.22,3.45a15.28,15.28,0,0,0,14.82,16.49c2.66.16,5.34-.12,8,.09,12.82,1,20.63-8.14,18.61-19.35,0-.22.19-.49.31-.73,10.44-4.4,15.25-9.5,17-18.48,1.65-8.36-1.21-15.77-5.39-22.76-7-11.74-16.82-20.9-27.52-29.19-3.45-2.68-7-2.51-10.39.17-1.54,1.21-3.1,2.41-4.59,3.68-10,8.52-19.08,17.73-25,29.65C182.84,209.64,187.91,226.16,204.79,231.53Z"/><path class="cls-1" d="M240.82,290c7,0,13.41.15,19.83-.07A35.55,35.55,0,0,0,271,288.52c3-1,4.95-1,6.53,1.91a19.31,19.31,0,0,0,2.07,2.65c5,6.11,9.75,6.13,14.75-.07q14.13-17.53,28.13-35.15c4-5,3.94-7.83,0-12.73-9.1-11.39-18.15-22.83-27.39-34.11-2-2.5-4.79-4.42-7.93-7.25V182.64a22.94,22.94,0,0,1,2.57-.33c11.5,0,23-.06,34.5,0,6,0,8.77,2.68,8.77,8.75q.09,60.38,0,120.76c0,6.21-2.83,8.84-9.14,8.84q-37,0-74,0c-6.27,0-9-2.69-9-9C240.77,304.71,240.82,297.72,240.82,290Z"/><path class="cls-1" d="M286.51,278.14V226.88l1.39-.34,20,24.93Z"/><path class="cls-1" d="M94.36,193.78c.44-5.26,1.31-8.94,5.17-10.88,3.17-1.6,7.74-.16,11,3.18,5.43,5.58,8.79,5.61,14,.14,3.39-3.53,8-4.86,11.35-3.24,3,1.49,5.65,6.21,4.64,10.49-.94,4-2.3,8.43-5,11.28-4.81,5.15-10.69,9.31-16.23,13.76a3.23,3.23,0,0,1-2.94.27c-7.53-4.43-14.69-9.41-19.12-17.22C95.74,198.83,95,195.63,94.36,193.78Z"/><path class="cls-1" d="M400,281.91H389.27c1.15-4.79,2.34-9.25,3.28-13.76,1.45-6.93-3-11.23-9.88-9.74-5.61,1.2-9.05-.32-10.59-4.69-1.47-4.15.24-7.21,5.47-9.79,5.78-2.83,9-7.37,9.34-13.87,0-.7.07-1.4.17-2.1.62-4.28,3.56-7.15,7.42-7.26a7.42,7.42,0,0,1,7.77,7.28c.09,8.33,3.89,13.63,11.4,16.91a6.79,6.79,0,0,1,3.61,8.84,7.74,7.74,0,0,1-9,5.15c-.83-.16-1.62-.49-2.44-.63-6-1.07-10.21,3-9.25,9,.39,2.48,1.15,4.9,1.74,7.36C398.87,277,399.4,279.26,400,281.91Z"/><path class="cls-1" d="M226.15,176c6.34,7.51,12.62,14.76,18.64,22.22a18.41,18.41,0,0,1,2.91,6.46c2.19,7.56-1.5,12.11-9.29,11.67-8.48-.46-11.57,3.29-9.53,11.58.62,2.55,1.2,5.11,1.88,8H220c.68-3,1.32-5.92,2-8.83,1.66-7.18-1.75-11.69-8.89-10.73-8.56,1.15-13.34-5.2-9.53-13.67C208.38,192,216.61,184.26,226.15,176Z"/></svg>