<svg id="Capa_1" data-name="Capa 1" xmlns="http://www.w3.org/2000/svg" viewBox="0 0 512 512"><defs><style>.cls-1{fill:#fff;}</style></defs><path class="cls-1" d="M473.28,202.22a70.43,70.43,0,0,0-21.18-16.53A72.37,72.37,0,0,0,404.69,83.74a70.66,70.66,0,0,0-27.37-1A72,72,0,0,0,276.87,29.07a67.6,67.6,0,0,0-20.52,14.21A71.68,71.68,0,0,0,135.29,82.51c-22.15-3.39-45.24,4.31-61.6,20.89-18.07,18.32-25,43.61-18.45,67.66a75,75,0,0,0,5.57,14.23A72.82,72.82,0,0,0,38.9,202.6c-9.68,11.21-13.23,23.56-15.58,31.73L22,238.92v20.52L23.32,264c2.15,7.47,5.75,20,15.18,31.3a70.15,70.15,0,0,0,21.88,17.34,71.59,71.59,0,0,0-2,59c8.8,21.62,27.25,37.68,49.37,43a71.89,71.89,0,0,0,27.35,1,72.49,72.49,0,0,0,71.13,60,70.83,70.83,0,0,0,39.51-12.11A68.66,68.66,0,0,0,256,455a71.83,71.83,0,0,0,50.2,20.42h.29a71.22,71.22,0,0,0,70.74-59.59c22.14,3.41,45.27-4.33,61.64-21,18-18.29,24.91-43.48,18.46-67.4a75.3,75.3,0,0,0-5.66-14.46,72.21,72.21,0,0,0,21.62-110.83Zm-41,82.65c-7.62,2.89-14.65,6.21-17.82,14.5a22.53,22.53,0,0,0,1.21,19.56c3.08,5.83,6.83,11.57,8.52,17.82,7.08,26.24-19,52.08-45.31,45.42-5.64-1.43-11.18-3.49-17.24-1.91-10.05,2.62-17,10.59-17.29,21s-2.66,19.75-9.58,27.82c-14.81,17.31-43,17.14-57.7-.27-3.38-4-7.1-8.28-11.6-10.72-9.31-5.05-19.66-2.27-26.84,5.67-3.82,4.22-7.49,8.91-12.13,12-23.79,15.93-56.08.14-58.75-28.44-.17-1.82-.22-3.65-.32-5.47-.77-15.28-13.52-25-28.33-21.31-7.93,2-15.66,3.43-23.86,1.47-24.32-5.81-36.65-35.56-23.32-56.67,3.12-4.94,6.62-9.63,7-15.87.55-9.58-4.58-18.59-13.51-22.15-7.94-3.15-15.58-6.5-21.25-13.31-4.66-5.58-6.71-12.22-8.65-19v-11c1.94-6.75,3.91-13.46,8.66-19a39.51,39.51,0,0,1,17.64-11.79c9.43-3.16,15.58-9.22,17-19.41a22.51,22.51,0,0,0-2.83-13.89c-3-5.7-6.71-11.33-8.37-17.46-7.17-26.44,19-52.32,45.48-45.52,5.64,1.45,11.19,3.43,17.25,1.81,9.82-2.63,16.75-10.62,17.06-20.81s2.58-19.76,9.48-27.86c14.92-17.53,43.23-17.43,57.87.37,3.72,4.53,7.21,9.24,13.07,11.39,9,3.29,18.61,1.11,24.86-6.22,5.09-6,10-12,17.48-15.26A38.16,38.16,0,0,1,344,93.28c.37,5.9.7,11.65,4.31,16.74,5,7.09,14.06,10.93,22.6,8.94,8.39-1.95,16.59-4,25.4-1.85,24.58,5.94,36.85,35.6,23.31,56.92-3,4.71-6.35,9.21-6.79,15.14-.74,10.1,4.33,19,13.7,22.76,7.67,3.08,15.06,6.34,20.65,12.84C464,244.28,456.29,275.75,432.26,284.87Z"/><path class="cls-1" d="M425.81,228.57c-1.45-.56-2.93-1.07-4.39-1.62a38.17,38.17,0,0,1-24.18-40.07c.93-7.78,4.47-14.28,8.69-20.64,5.45-8.21,4.8-18.11-1.31-25.85-6.45-8.16-14.72-10.27-26.75-6.8-21.27,6.12-42.78-5.79-48.12-27-1.25-5-1-10.36-1.81-15.49C326.07,79.44,314.27,71.21,302.6,73c-7.25,1.13-12,5.52-16.37,11-9.74,12.36-22.58,17.22-38.07,14.39-10.7-2-18.36-8.48-24.92-16.92-8.93-11.48-25.17-11.6-34.77-.73-4.45,5-5.23,11.14-5.39,17.52a37.88,37.88,0,0,1-25.68,34.87c-9.2,3.2-18.1,2-27.22-.53-13.17-3.71-26.07,5.36-27.91,18.93-1,7.18,2.14,12.79,5.84,18.49,8.68,13.36,8.92,27.21,1.08,41-5.23,9.18-13.69,14.25-23.51,17.67-9.2,3.2-14.41,11.14-14.49,20.68s5.27,17.52,14.46,21.15c1.57.62,3.2,1.1,4.76,1.76C103.84,278,111.9,288,114.24,302.39c1.61,10-.83,19.14-6.51,27.42-3.15,4.59-5.88,9.27-5.68,13.71.06,12.56,8.5,22.58,19.66,23.56,4.63.4,9.53-.81,14.14-2,19.52-4.88,40.06,6.5,45.54,25.84,1.33,4.69,1.44,9.75,1.92,14.66a22.56,22.56,0,0,0,27.48,20.19c6.77-1.4,11-6,15-11.12,10.39-13.22,26.91-18,42.8-12.53,8.48,2.91,14.48,8.82,20,15.7,9,11.33,25.37,11.36,34.79.4,4.27-5,5.05-10.93,5.26-17.18.44-13.32,6.33-23.74,17.47-31,10.95-7.16,22.61-7.33,34.88-3.67s24.07-3.13,27.75-15.54c2.38-8-.4-14.65-4.83-21.24-9-13.35-9.35-27.33-1.48-41.31,5.19-9.2,13.6-14.34,23.43-17.75,9.39-3.27,14.68-11.3,14.67-21S435.09,232.21,425.81,228.57ZM284.37,184.31c2.83-2.39,5.63-2.69,8.91-.66,10.75,6.65,21.59,13.14,33,19.35-.57-1.16-1.11-2.33-1.73-3.46q-13.8-25.18-27.65-50.36c-1.39-2.52-2.63-5-.13-7.44,2.68-2.66,5.84-4.6,9.76-3.74,1.14.25,2.29,1.72,2.91,2.9q17.15,32.7,34.13,65.48c2.25,4.34,1,8.52-3.4,12.41-4.08,3.63-7.27,4-11.62,1.37-7.88-4.82-15.74-9.68-24.54-15.11.8,1.75,1.1,2.63,1.57,3.4,4.4,7.23,8.86,14.43,13.25,21.68,2.56,4.23,2.06,7.59-1.58,11.6-3.87,4.26-7.92,5.54-12.09,3.38q-33-17.07-65.84-34.29c-3.56-1.87-4-4.88-1.55-9.36s5.17-5.7,9.06-3.58q25.38,13.85,50.73,27.79c1.25.68,2.51,1.34,3.77,2l.64-.5q-9.71-16-19.4-32C279.83,190.68,280.36,187.68,284.37,184.31ZM231.14,259.7c3.11-3.43,6.39-7.24,9.87-10.86s6.14-3.67,9.07-.83,2.65,5.77-.68,9.09c-3.58,3.57-7.25,7.07-10.61,10.34l16.67,16.71c7-7,14.1-14.24,21.27-21.4,3.43-3.42,6.83-3.22,10,.46,2.57,3,2.65,5.48-.09,8.26q-13.91,14-27.95,27.91c-3.88,3.82-6.34,3.64-10.27-.28q-24.62-24.6-49.22-49.23c-4-4-4.12-6.47-.07-10.56q13.62-13.77,27.39-27.37c3.12-3.11,6-3,9.1.13s3.19,6.15.19,9.18c-7.16,7.21-14.38,14.36-21.61,21.56Zm-89-35.61a7.65,7.65,0,0,1-5.09-10,113.65,113.65,0,0,1,6.38-16.76c20.09-40.29,52.18-64.3,97-70.68,3.22-.46,6.47-.68,9.71-1l0,.15a58.43,58.43,0,0,1,6.62,0,7.58,7.58,0,0,1,.46,15c-5.16.7-10.41.68-15.54,1.48-42.58,6.57-71.48,30.34-87.6,70-.88,2.16-1.46,4.45-2.34,6.62C150,223.35,146,225.4,142.13,224.09Zm98.79,91.82c-1.7,3.62-4.27,6.38-8.49,6.58a20.19,20.19,0,0,1-6.49-1.06c-15.31-4.59-30.6-9.27-46.94-14.24,1.37,1.57,2,2.4,2.76,3.14q14,14,27.92,27.95c3.5,3.51,3.37,6.76-.31,10.4s-6.83,3.7-10.4.13q-24.36-24.33-48.69-48.68c-2.12-2.12-4.62-4-3.19-7.66s5.85-7.19,9.53-7a33.69,33.69,0,0,1,8,1.54c13.68,4.24,27.31,8.61,41,12.92.71.23,1.45.36,2.18.54l1.36-1.51c-1.28-.64-2.81-1-3.78-2-9-8.88-17.94-17.84-26.87-26.8-3.65-3.66-3.6-6.57.12-10.34,4-4,6.74-4.14,10.59-.29q24.5,24.46,49,49C240.21,310.58,242.5,312.54,240.92,315.91Zm110.56,12.54c-6,6.34-11.92,12.87-18.7,18.29C312,363.34,288.1,372,261.84,373.5c-2.38,0-4.48.17-6.54,0a7.66,7.66,0,0,1-7.25-7.37,7.55,7.55,0,0,1,6.71-7.81c6.71-.9,13.51-1.13,20.17-2.26,23.11-3.91,42.67-14.66,58.95-31.45,2-2.06,3.8-4.29,5.77-6.38,4-4.21,8.5-4.77,12-1.55S355.37,324.32,351.48,328.45Zm10.31-22.1a7.93,7.93,0,0,1,0-15.85,8.26,8.26,0,0,1,8,8A8.15,8.15,0,0,1,361.79,306.35Z"/></svg>