<svg id="Capa_1" data-name="Capa 1" xmlns="http://www.w3.org/2000/svg" viewBox="0 0 512 512"><defs><style>.cls-1{fill:#fff;}</style></defs><path class="cls-1" d="M482.46,409.48a7,7,0,0,0-.73,1.54c-6.08,29.83-35.75,45.38-63.91,33.44C407,439.87,398.87,432.25,393,422.08c-17.92-30.86-36-61.61-53.81-92.55-2.31-4-4.78-5.23-9.29-5.21q-79.28.26-158.54.06a101.68,101.68,0,0,1-96.56-70C54.43,193.29,96,128.47,160,121.42a128.21,128.21,0,0,1,14.13-.73c53.43,0,106.88.78,160.3-.27,51.56-1,95.9,33.1,106.57,86.68C453.61,270.26,468.12,333,481.81,396a4.13,4.13,0,0,0,.65,1.12ZM189.15,209.25c-.5-.54-.68-.65-.68-.76q-.09-10.4-.15-20.8c0-5.12-2.06-9.19-6.43-11.88a13.17,13.17,0,0,0-20.09,11.11c-.23,7.32-.05,14.66-.05,22.34-7.57,0-14.62,0-21.68,0-5.68,0-10,2.54-12.44,7.67-4.2,8.69,2,18.57,11.88,18.84,7.32.21,14.64,0,21.68,0a5.06,5.06,0,0,1,.44,1c0,6.93,0,13.87.13,20.8.14,7.85,5.9,13.69,13.32,13.65s13-5.86,13.23-13.75c.05-2.06,0-4.13,0-6.2V236.15a12.71,12.71,0,0,1,1.52-.28c6.35,0,12.7,0,19,0,8.9-.05,15-5.56,14.86-13.46-.1-7.73-6.09-13.07-14.75-13.11C202.24,209.23,195.49,209.25,189.15,209.25Zm125,13.35a13.28,13.28,0,1,0-13.22,13.22A13.42,13.42,0,0,0,314.11,222.6Zm70.88.06a13.28,13.28,0,1,0-13.29,13.16A13.41,13.41,0,0,0,385,222.66Zm-35.44-35.39a13.28,13.28,0,1,0-13.34,13.11A13.42,13.42,0,0,0,349.55,187.27Zm0,70.83a13.28,13.28,0,1,0-13.29,13.15A13.43,13.43,0,0,0,349.55,258.1Z"/><path class="cls-1" d="M55.47,278.36c22.54,42,56.8,66.27,104.08,72.31a30.91,30.91,0,0,1-1.43,3.16c-13.51,23.19-26.91,46.46-40.63,69.52-12.44,20.9-37.22,30.19-58.76,22.43a44.91,44.91,0,0,1-28.8-52.12C38,355.74,46.4,317.89,54.67,280A9.89,9.89,0,0,1,55.47,278.36Z"/></svg>