<svg id="Capa_1" data-name="Capa 1" xmlns="http://www.w3.org/2000/svg" viewBox="0 0 512 512"><defs><style>.cls-1{fill:#fff;}</style></defs><path class="cls-1" d="M466.06,305.76C447.25,329.84,360.11,348,255.43,348,151.7,348,65.18,330.17,45.32,306.42c-3.15,3.93-4.82,8-4.82,12.19,0,31.93,96.46,57.81,215.45,57.81s215.46-25.88,215.46-57.81C471.41,314.2,469.55,309.9,466.06,305.76Z"/><path class="cls-1" d="M466.06,263.86c-18.81,24.07-105.95,42.28-210.63,42.28-103.73,0-190.25-17.87-210.11-41.62-3.15,3.93-4.82,8-4.82,12.19,0,31.93,96.46,57.81,215.45,57.81s215.46-25.88,215.46-57.81C471.41,272.29,469.55,268,466.06,263.86Z"/><path class="cls-1" d="M406.49,199c19.42,8.71,30.76,19.19,30.76,30.47,0,30.18-81.17,54.65-181.3,54.65S74.66,259.6,74.66,229.42c0-11.28,11.33-21.76,30.76-30.47-40,10.4-64.92,24.92-64.92,41,0,31.63,96.46,57.28,215.45,57.28s215.46-25.65,215.46-57.28C471.41,223.87,446.54,209.35,406.49,199Z"/><path class="cls-1" d="M91,245.71s-9.46-7.36-8.41-15.77,6.69-18.88,48-31,101.23-14.2,101.23-14.2l3.15,21s-51,3.68-90.91,11S93.58,239.93,92.52,242A30.42,30.42,0,0,0,91,245.71Z"/><path class="cls-1" d="M418.78,245.71s9.46-7.36,8.41-15.77-6.69-18.88-48-31-101.23-14.2-101.23-14.2l-3.15,21s51,3.68,90.91,11,50.45,23.13,51.5,25.23A31.7,31.7,0,0,1,418.78,245.71Z"/><path class="cls-1" d="M240.19,187.9s5.25,3.16,14.71,3.16,14.78-3.16,14.78-3.16-7.42,39.94-8.47,46.25-12.61,5.25-13.66,0S240.19,187.9,240.19,187.9Z"/><path class="cls-1" d="M172.93,270.93s-34.69-5.25-50.45-10.51S98.3,249.91,98.3,249.91a13.93,13.93,0,0,1,1.06-5.25,7.82,7.82,0,0,1,3.15-3.16s14.71,7.36,29.43,13.67S172.93,270.93,172.93,270.93Z"/><path class="cls-1" d="M186.3,263.65l7.12-3.75s-22.07-12.62-32.58-21S144,224.16,144,224.16s-11.56,3.15-20,6.31-10.51,4.2-10.51,4.2,16.82,9.46,32.59,14.72S175.55,259.9,178.71,261,186.3,263.65,186.3,263.65Z"/><path class="cls-1" d="M206,253.59l3.15-2.1S196.57,241,190.27,232.57a107.48,107.48,0,0,1-9.46-14.71L157.69,221a172.84,172.84,0,0,0,23.12,18.92A168.07,168.07,0,0,0,206,253.59Z"/><path class="cls-1" d="M224.2,243.9l-4,1.81s-11-7.89-17.3-15.24a74.92,74.92,0,0,1-9.46-13.67,47.68,47.68,0,0,1,10.51-1.05,47,47,0,0,0,8.67-.52,57,57,0,0,0,3.94,14.19A119,119,0,0,0,224.2,243.9Z"/><path class="cls-1" d="M233.36,237.82s-5.26-9.45-7.36-14.71a25.26,25.26,0,0,1-2.1-8.41h12.61a21.48,21.48,0,0,1,1.05,5.26c0,2.1,0,8.41,1.05,11.56a18.38,18.38,0,0,1,1,5.25Z"/><path class="cls-1" d="M337.38,271.46s34.69-5.26,50.45-10.51S412,250.44,412,250.44a14.09,14.09,0,0,0-1.05-5.26A7.84,7.84,0,0,0,407.8,242s-14.71,7.36-29.43,13.66S337.38,271.46,337.38,271.46Z"/><path class="cls-1" d="M324,264.17l-7.12-3.75s22.07-12.61,32.58-21,16.82-14.71,16.82-14.71,11.56,3.15,20,6.3,10.51,4.21,10.51,4.21-16.82,9.46-32.59,14.71-29.42,10.51-32.58,11.56S324,264.17,324,264.17Z"/><path class="cls-1" d="M304.28,254.11l-3.16-2.1S313.74,241.5,320,233.09a106.77,106.77,0,0,0,9.46-14.71l23.12,3.15a172.84,172.84,0,0,1-23.12,18.92A167,167,0,0,1,304.28,254.11Z"/><path class="cls-1" d="M286.11,244.43l4,1.8s11-7.88,17.3-15.24a74.68,74.68,0,0,0,9.46-13.66,47.68,47.68,0,0,0-10.51-1.05,46.14,46.14,0,0,1-8.67-.53,57,57,0,0,1-3.94,14.19A120.26,120.26,0,0,1,286.11,244.43Z"/><path class="cls-1" d="M277,238.35s5.26-9.46,7.36-14.71a25.31,25.31,0,0,0,2.1-8.41H273.8a21.36,21.36,0,0,0-1.05,5.25c0,2.1,0,8.41-1.05,11.56a18.47,18.47,0,0,0-1.05,5.26Z"/><path class="cls-1" d="M185.54,273l50.74-27.32A82.18,82.18,0,0,0,256,248.08a155.45,155.45,0,0,0,20.58-2.37L325.1,273a651.82,651.82,0,0,1-69.78,3.29C215,276.19,185.54,273,185.54,273Z"/><path class="cls-1" d="M244.39,159.53l-5.25,18.91s4.27,5.44,15.8,5.35,15.73-5.35,15.73-5.35l-3.15-14.71s-5.26-3.15-8.41-5.26-3.46-3.89-3.46-3.89a61.36,61.36,0,0,1-6,3.89A14,14,0,0,1,244.39,159.53Z"/><path class="cls-1" d="M244.82,148.78c-3.82-1.27-13.8-7-13.8-7l-17.82,5.73a45.54,45.54,0,0,0-6,2.63,8.49,8.49,0,1,0,2.56,8.21A89.22,89.22,0,0,0,228.27,156a191.4,191.4,0,0,0,21.85-6.16S248.63,150.05,244.82,148.78Z"/><path class="cls-1" d="M303.59,160.66a8.45,8.45,0,0,0-4.35,1.2,85,85,0,0,0-6.9-5.44,226.41,226.41,0,0,0-19.09-12.31l-2.13-1.06a20.22,20.22,0,0,1-6.15,2.34,19,19,0,0,1-5.94.21s1.27,4.67,3.61,5.94,16.33,10.4,22.49,13.37c4.44,2.14,8.22,3.85,10,4.63a8.48,8.48,0,1,0,8.48-8.88Z"/><path class="cls-1" d="M313.56,119.08a8.48,8.48,0,0,0-8.26,6.54,62.15,62.15,0,0,0-13.6,1.31c-8.27,1.7-13.36,3-13.36,3s.21,6.23,0,6.93a5.48,5.48,0,0,1-.64,1.34l6.58,4s13.17-4,16.77-5.29c2.84-1,6-2.29,7.14-2.77a8.49,8.49,0,1,0,5.37-15.06Z"/><path class="cls-1" d="M235.69,121.41s-7.42-3.82-10.82-5.3a42,42,0,0,0-5.1-1.87,2.18,2.18,0,0,0,0-.25,8.47,8.47,0,1,0-4.16,7.3,37.28,37.28,0,0,0,4.16,3.72c3.82,3,13.15,9.34,13.15,9.34s-.84-6.15-.21-9.12A5.21,5.21,0,0,1,235.69,121.41Z"/><path class="cls-1" d="M255.85,136.69c-10.1,0-18.88-3-19.08-4.24a1.49,1.49,0,0,0,0,.21v3c0,3.4,8.36,6.15,18.67,6.15s18.67-2.75,18.67-6.15v-3a1.48,1.48,0,0,0,0-.21C273.88,133.93,265.94,136.69,255.85,136.69Z"/><ellipse class="cls-1" cx="255.42" cy="125.97" rx="18.67" ry="6.05"/></svg>