<svg id="Capa_1" data-name="Capa 1" xmlns="http://www.w3.org/2000/svg" viewBox="0 0 512 512"><defs><style>.cls-1{fill:#fff;}</style></defs><path class="cls-1" d="M314,412.37c-.3,2.17-.48,4.35-.92,6.48-.66,3.16-1.51,6.28-2.35,9.72-6.91-5.1-10.34-11.61-10.29-19.76s3.49-14.41,10.24-19.4c.77,3,1.58,5.64,2.14,8.35.48,2.28.67,4.62,1,6.94,0,.29.12.58.19.87Z"/><path class="cls-1" d="M259.36,350.93c2.2.3,4.42.48,6.59.93,3.16.67,6.28,1.53,9.51,2.33a23.66,23.66,0,0,1-39,0c3.27-.81,6.43-1.66,9.62-2.33,2.13-.45,4.32-.63,6.48-.93Z"/><path class="cls-1" d="M307.83,383.25c-18.27,11.13-19.53,38.91,0,51.6a59.41,59.41,0,0,1-26,26,30.59,30.59,0,0,0-51.67,0,59.37,59.37,0,0,1-26.09-26.08,30.62,30.62,0,0,0,0-51.7,59.38,59.38,0,0,1,26-26c6.25,9.07,14.75,14.17,25.8,14.19s19.58-5.07,25.83-14.07C289.87,359.73,303.49,373.31,307.83,383.25ZM225.35,409A30.61,30.61,0,1,0,256,378.37,30.66,30.66,0,0,0,225.35,409Z"/><path class="cls-1" d="M236.6,463.6c9.47-13.68,29.66-13.38,38.71,0A56.77,56.77,0,0,1,236.6,463.6Z"/><path class="cls-1" d="M201.39,389.67a23.48,23.48,0,0,1,.07,38.54C196.93,421.31,196.87,399.46,201.39,389.67Z"/><path class="cls-1" d="M255.92,385.17A23.81,23.81,0,1,1,232.15,409,23.84,23.84,0,0,1,255.92,385.17Zm-10.08,34V426h9.47c.5,0,1,0,1.48,0a10.26,10.26,0,0,0,9.36-9.59,10.09,10.09,0,0,0-8.45-10.57,47.11,47.11,0,0,0-5.07-.3v-6.77H266.1v-6.66H245.81v20.32h10a3.39,3.39,0,1,1,.09,6.78C252.57,419.21,249.25,419.17,245.84,419.17Z"/><path class="cls-1" d="M160.78,99.31c-.29,2.16-.47,4.35-.92,6.48-.65,3.16-1.5,6.28-2.34,9.72-6.91-5.11-10.34-11.62-10.3-19.77s3.5-14.4,10.24-19.39c.78,3,1.59,5.63,2.15,8.35.47,2.28.66,4.62,1,6.94,0,.29.13.58.19.87Z"/><path class="cls-1" d="M106.14,37.87c2.19.3,4.42.48,6.59.93,3.15.66,6.27,1.52,9.51,2.33a23.67,23.67,0,0,1-39,0c3.28-.81,6.43-1.67,9.63-2.33,2.13-.45,4.31-.63,6.47-.93Z"/><path class="cls-1" d="M154.6,70.19c-18.27,11.12-19.52,38.9,0,51.59a59.38,59.38,0,0,1-26,26,30.57,30.57,0,0,0-51.66,0,59.34,59.34,0,0,1-26.09-26.09A30.63,30.63,0,0,0,50.88,70a59.32,59.32,0,0,1,26-26c6.25,9.08,14.75,14.18,25.8,14.19s19.57-5.06,25.83-14.06C136.64,46.67,150.26,60.25,154.6,70.19ZM72.12,95.9A30.62,30.62,0,1,0,102.8,65.31,30.68,30.68,0,0,0,72.12,95.9Z"/><path class="cls-1" d="M83.37,150.53c9.47-13.68,29.67-13.37,38.71,0A56.77,56.77,0,0,1,83.37,150.53Z"/><path class="cls-1" d="M48.17,76.61a23.47,23.47,0,0,1,.06,38.53C43.7,108.24,43.64,86.4,48.17,76.61Z"/><path class="cls-1" d="M102.69,72.11A23.81,23.81,0,1,1,78.93,95.92,23.83,23.83,0,0,1,102.69,72.11Zm-10.08,34v6.8c3.22,0,6.35,0,9.48,0,.49,0,1,0,1.47,0a10.26,10.26,0,0,0,9.36-9.59,10.1,10.1,0,0,0-8.45-10.58,49.64,49.64,0,0,0-5.06-.29V85.65h13.46V79H92.58V99.31h10a3.4,3.4,0,1,1,.09,6.79C99.34,106.14,96,106.11,92.61,106.11Z"/><path class="cls-1" d="M467.23,255.29c-.29,2.16-.47,4.35-.92,6.48-.65,3.16-1.5,6.28-2.34,9.72-6.91-5.11-10.35-11.62-10.3-19.77s3.5-14.4,10.24-19.39c.78,3,1.58,5.63,2.15,8.35.47,2.28.66,4.62,1,6.94,0,.29.13.58.19.87Z"/><path class="cls-1" d="M412.58,193.85c2.2.3,4.43.48,6.59.93,3.16.66,6.28,1.53,9.52,2.33a23.67,23.67,0,0,1-39,0c3.28-.81,6.43-1.67,9.63-2.33,2.13-.45,4.31-.63,6.47-.93Z"/><path class="cls-1" d="M461.05,226.17c-18.27,11.13-19.52,38.9,0,51.59a59.38,59.38,0,0,1-26,26,30.57,30.57,0,0,0-51.66,0,59.41,59.41,0,0,1-26.1-26.09,30.63,30.63,0,0,0,.06-51.7,59.32,59.32,0,0,1,26-26c6.24,9.08,14.74,14.18,25.8,14.19s19.57-5.06,25.83-14.06C443.09,202.65,456.71,216.23,461.05,226.17Zm-82.48,25.71a30.61,30.61,0,1,0,30.68-30.59A30.68,30.68,0,0,0,378.57,251.88Z"/><path class="cls-1" d="M389.82,306.51c9.47-13.68,29.67-13.37,38.71,0A56.77,56.77,0,0,1,389.82,306.51Z"/><path class="cls-1" d="M354.62,232.59a23.47,23.47,0,0,1,.06,38.53C350.15,264.22,350.09,242.38,354.62,232.59Z"/><path class="cls-1" d="M409.14,228.09a23.81,23.81,0,1,1-23.76,23.81A23.84,23.84,0,0,1,409.14,228.09Zm-10.08,34v6.8h9.48c.49,0,1,0,1.47,0a10.26,10.26,0,0,0,9.36-9.59,10.1,10.1,0,0,0-8.45-10.58,49.64,49.64,0,0,0-5.06-.29v-6.77h13.46V235H399v20.32h10a3.4,3.4,0,1,1,.09,6.79C405.79,262.12,402.47,262.09,399.06,262.09Z"/><rect class="cls-1" x="36.22" y="337.71" width="132.83" height="132.83" rx="20"/><rect class="cls-1" x="342.67" y="337.71" width="132.83" height="132.83" rx="20"/><rect class="cls-1" x="36.22" y="185.58" width="132.83" height="132.83" rx="20"/><rect class="cls-1" x="189.44" y="185.58" width="132.83" height="132.83" rx="20"/><rect class="cls-1" x="189.44" y="33.46" width="132.83" height="132.83" rx="20"/><rect class="cls-1" x="342.67" y="33.46" width="132.83" height="132.83" rx="20"/></svg>