<?xml version="1.0" encoding="utf-8"?>
<!-- Generator: Adobe Illustrator 25.2.3, SVG Export Plug-In . SVG Version: 6.00 Build 0)  -->
<svg version="1.1" id="Capa_1" xmlns="http://www.w3.org/2000/svg" xmlns:xlink="http://www.w3.org/1999/xlink" x="0px" y="0px"
	 viewBox="0 0 200 80" style="enable-background:new 0 0 200 80;" xml:space="preserve">
<style type="text/css">
	.st0{fill:#FFFFFF;}
</style>
<g>
	<g>
		<path class="st0" d="M23.117,17.596c1.832-0.004,3.52,0.17,5.064,0.523c1.544,0.353,2.878,0.936,3.998,1.749
			c1.121,0.813,1.997,1.898,2.628,3.255c0.63,1.358,0.949,3.039,0.953,5.043c0.005,2.005-0.372,3.798-1.132,5.38
			c-0.759,1.582-1.791,2.918-3.094,4.009c-1.304,1.09-2.803,1.926-4.497,2.508c-1.695,0.581-3.492,0.874-5.392,0.878l-9.87,0.024
			L9.06,54.003l-7.937,0.019l7.443-36.391L23.117,17.596z M21.239,34.727c2.035-0.005,3.637-0.527,4.804-1.566
			c1.168-1.04,1.749-2.648,1.744-4.823c-0.002-0.918-0.166-1.675-0.489-2.269c-0.324-0.594-0.758-1.052-1.301-1.373
			c-0.543-0.321-1.146-0.55-1.808-0.684c-0.662-0.134-1.349-0.201-2.061-0.2l-6.818,0.016l-2.213,10.917L21.239,34.727z"/>
		<path class="st0" d="M36.968,31.514c0.775-1.1,1.718-1.989,2.831-2.667c1.113-0.678,2.361-1.163,3.745-1.453
			c1.384-0.291,2.818-0.438,4.305-0.441c1.182-0.003,2.414,0.079,3.698,0.244c1.282,0.166,2.464,0.492,3.545,0.979
			c1.079,0.487,1.966,1.177,2.659,2.069c0.694,0.893,1.025,2.082,0.995,3.566c0.003,1.248-0.179,2.718-0.546,4.405l-2.301,10.536
			c-0.133,0.473-0.226,1.056-0.275,1.747c-0.048,0.692-0.072,1.291-0.071,1.798c0.001,0.438,0.087,0.945,0.257,1.518l-7.206,0.011
			l-0.006-2.583c-0.978,1.12-2.175,1.943-3.594,2.471c-1.417,0.527-2.888,0.793-4.408,0.797c-1.419,0.003-2.662-0.179-3.727-0.547
			c-1.066-0.369-1.955-0.864-2.666-1.487c-0.712-0.623-1.237-1.348-1.577-2.174c-0.34-0.826-0.511-1.695-0.513-2.606
			c-0.006-2.532,0.86-4.56,2.599-6.083c1.739-1.523,4.196-2.475,7.375-2.854c1.69-0.206,3.162-0.362,4.413-0.467
			c1.251-0.104,2.291-0.267,3.119-0.488c0.828-0.222,1.445-0.544,1.849-0.967c0.405-0.423,0.607-1.057,0.605-1.9
			c-0.002-0.674-0.155-1.214-0.461-1.619c-0.304-0.404-0.685-0.723-1.141-0.959c-0.457-0.236-0.947-0.395-1.471-0.477
			c-0.523-0.084-1.022-0.124-1.494-0.123c-1.283,0.003-2.431,0.319-3.443,0.947c-1.012,0.629-1.634,1.604-1.868,2.925l-6.738,0.016
			C35.69,33.991,36.193,32.614,36.968,31.514 M47.71,42.26c-1.05,0.121-2.098,0.216-3.147,0.286
			c-0.676,0.069-1.336,0.18-1.978,0.333c-0.642,0.153-1.209,0.383-1.699,0.688c-0.49,0.305-0.887,0.719-1.19,1.242
			c-0.304,0.524-0.454,1.191-0.452,2c0.002,0.978,0.401,1.711,1.198,2.198c0.797,0.487,1.72,0.73,2.768,0.727
			c1.117-0.003,2.055-0.182,2.817-0.538c0.761-0.356,1.402-0.813,1.926-1.371c0.523-0.557,0.936-1.191,1.239-1.901
			c0.303-0.709,0.555-1.418,0.756-2.126l0.705-2.532C49.74,41.808,48.759,42.14,47.71,42.26"/>
		<path class="st0" d="M67.022,59.917c-0.64,0.727-1.348,1.294-2.124,1.701c-0.776,0.406-1.662,0.687-2.658,0.842
			c-0.996,0.153-2.17,0.232-3.52,0.235c-0.608,0.001-1.232-0.029-1.875-0.094c-0.641-0.064-1.283-0.111-1.926-0.143l1.202-6.003
			c0.473-0.001,0.954,0.05,1.444,0.155c0.49,0.103,0.971,0.155,1.444,0.154c0.844-0.002,1.519-0.13,2.026-0.384
			c0.505-0.255,0.918-0.559,1.239-0.914c0.319-0.355,0.589-0.735,0.807-1.141c0.218-0.406,0.446-0.761,0.681-1.064l-4.723-25.9
			l7.396-0.018l2.325,18.715l0.102,0l9.022-18.742l7.599-0.018L68.89,57.154C68.284,58.269,67.661,59.19,67.022,59.917"/>
	</g>
	<path class="st0" d="M109.537,25.522c-1.178-1.102-2.709-1.651-4.595-1.647c-1.986,0.005-3.714,0.462-5.184,1.373
		c-1.472,0.91-2.676,2.085-3.616,3.522c-0.94,1.437-1.639,3.039-2.098,4.804c-0.46,1.766-0.687,3.491-0.683,5.173
		c0.003,1.221,0.162,2.376,0.479,3.463c0.316,1.088,0.799,2.052,1.445,2.892c0.647,0.839,1.475,1.505,2.485,1.998
		c1.009,0.492,2.225,0.737,3.646,0.733c1.057-0.003,2.057-0.195,2.998-0.577c0.942-0.381,1.776-0.894,2.502-1.539
		c0.725-0.645,1.335-1.397,1.829-2.256c0.494-0.859,0.822-1.75,0.986-2.674l7.785-0.019c-0.787,2.476-1.715,4.573-2.785,6.292
		c-1.07,1.718-2.272,3.115-3.607,4.19c-1.336,1.076-2.821,1.856-4.454,2.338c-1.634,0.482-3.41,0.726-5.326,0.731
		c-5.022,0.012-8.9-1.314-11.631-3.979c-2.732-2.665-4.104-6.521-4.116-11.567c-0.007-2.87,0.432-5.591,1.317-8.166
		c0.886-2.575,2.161-4.845,3.824-6.812c1.664-1.966,3.691-3.529,6.083-4.689c2.392-1.16,5.076-1.744,8.048-1.752
		c2.048-0.005,3.948,0.271,5.7,0.827c1.753,0.555,3.266,1.383,4.54,2.483c1.275,1.101,2.261,2.465,2.959,4.096
		c0.698,1.63,1.033,3.518,1.004,5.662l-7.765,0.019C111.306,28.264,110.714,26.624,109.537,25.522"/>
	<path class="st0" d="M121.726,31.313c0.773-1.1,1.717-1.989,2.829-2.667c1.113-0.678,2.361-1.163,3.746-1.453
		c1.384-0.291,2.818-0.438,4.305-0.441c1.182-0.003,2.415,0.079,3.698,0.244c1.282,0.166,2.463,0.492,3.544,0.979
		c1.08,0.487,1.966,1.177,2.66,2.069c0.693,0.893,1.024,2.082,0.995,3.566c0.003,1.248-0.18,2.718-0.546,4.405l-2.3,10.536
		c-0.134,0.473-0.227,1.056-0.275,1.747c-0.049,0.692-0.073,1.291-0.072,1.798c0.001,0.438,0.087,0.945,0.257,1.518l-7.203,0.003
		l-0.008-2.574c-0.978,1.12-2.176,1.943-3.594,2.471c-1.418,0.527-2.888,0.793-4.408,0.797c-1.419,0.003-2.662-0.179-3.728-0.547
		c-1.066-0.369-1.954-0.864-2.666-1.487c-0.711-0.623-1.237-1.348-1.577-2.174c-0.339-0.826-0.51-1.695-0.512-2.606
		c-0.006-2.532,0.859-4.56,2.599-6.083c1.739-1.523,4.196-2.475,7.375-2.854c1.69-0.206,3.161-0.362,4.413-0.467
		c1.251-0.104,2.291-0.267,3.119-0.488c0.828-0.222,1.444-0.544,1.849-0.967c0.405-0.423,0.607-1.057,0.605-1.9
		c-0.002-0.674-0.155-1.214-0.46-1.619c-0.305-0.404-0.686-0.723-1.142-0.959c-0.456-0.236-0.946-0.395-1.471-0.477
		c-0.523-0.084-1.022-0.124-1.495-0.123c-1.283,0.003-2.43,0.319-3.443,0.947c-1.011,0.629-1.634,1.604-1.867,2.925l-6.738,0.016
		C120.447,33.791,120.95,32.413,121.726,31.313 M132.467,42.06c-1.05,0.121-2.098,0.216-3.147,0.286
		c-0.676,0.069-1.337,0.18-1.979,0.333c-0.642,0.153-1.209,0.383-1.698,0.688c-0.49,0.305-0.887,0.719-1.191,1.242
		c-0.303,0.524-0.454,1.191-0.452,2c0.002,0.978,0.402,1.711,1.198,2.198c0.796,0.487,1.72,0.73,2.768,0.727
		c1.117-0.003,2.055-0.182,2.816-0.538c0.761-0.356,1.402-0.813,1.926-1.371c0.524-0.557,0.937-1.191,1.239-1.901
		c0.303-0.709,0.555-1.418,0.756-2.126l0.705-2.532C134.496,41.608,133.516,41.939,132.467,42.06"/>
	<path class="st0" d="M159.936,32.429c-0.626-0.623-1.649-0.933-3.066-0.93c-1.283,0.003-2.339,0.2-3.164,0.59
		c-0.827,0.39-1.239,1.058-1.236,2.003c0.001,0.574,0.247,1.063,0.737,1.467c0.491,0.405,1.343,0.791,2.56,1.158l3.597,1.156
		c0.98,0.301,1.884,0.654,2.711,1.056c0.828,0.404,1.555,0.9,2.181,1.489c0.626,0.589,1.116,1.288,1.473,2.098
		c0.357,0.809,0.537,1.754,0.539,2.834c0.004,1.621-0.357,2.998-1.081,4.13c-0.724,1.133-1.676,2.055-2.857,2.767
		c-1.181,0.711-2.515,1.221-4.002,1.529c-1.486,0.307-2.989,0.462-4.51,0.466c-1.284,0.003-2.585-0.129-3.905-0.395
		c-1.318-0.267-2.511-0.711-3.576-1.332c-1.067-0.622-1.939-1.445-2.617-2.473c-0.678-1.026-1.019-2.317-1.023-3.868l-0.003-1.062
		l6.639-0.016l0.002,0.857c0.001,0.605,0.154,1.126,0.46,1.561c0.306,0.436,0.703,0.797,1.194,1.082
		c0.49,0.284,1.048,0.501,1.674,0.651c0.625,0.15,1.242,0.224,1.85,0.222c0.541-0.001,1.081-0.053,1.622-0.156
		c0.541-0.102,1.03-0.28,1.469-0.535c0.438-0.254,0.793-0.575,1.062-0.964c0.27-0.389,0.403-0.887,0.402-1.494
		c-0.002-0.91-0.239-1.551-0.713-1.921c-0.473-0.37-1.098-0.689-1.875-0.957l-5.524-1.758c-0.912-0.301-1.714-0.619-2.407-0.955
		c-0.693-0.336-1.284-0.756-1.775-1.26c-0.492-0.505-0.864-1.112-1.119-1.819c-0.254-0.708-0.384-1.585-0.386-2.631
		c-0.004-1.551,0.357-2.851,1.081-3.899c0.725-1.048,1.661-1.902,2.808-2.563c1.148-0.661,2.406-1.136,3.774-1.426
		c1.368-0.29,2.677-0.437,3.926-0.44c1.418-0.003,2.786,0.112,4.104,0.344c1.318,0.233,2.475,0.661,3.473,1.283
		c0.997,0.622,1.785,1.472,2.362,2.55c0.577,1.079,0.851,2.461,0.82,4.148l-6.687,0.016
		C160.894,33.919,160.562,33.052,159.936,32.429"/>
	<path class="st0" d="M180.819,17.304L178.149,30.4l0.102,0c0.271-0.375,0.661-0.784,1.169-1.227c0.509-0.444,1.12-0.854,1.833-1.23
		c0.712-0.375,1.544-0.692,2.495-0.949c0.951-0.258,2.021-0.389,3.21-0.391c5.131-0.012,7.703,2.34,7.714,7.056
		c0.001,0.271-0.032,0.619-0.1,1.044c-0.066,0.424-0.142,0.856-0.225,1.298c-0.085,0.441-0.168,0.857-0.252,1.248
		c-0.084,0.39-0.143,0.705-0.177,0.941l-3.225,15.428l-7.242,0.001l3.178-15.401c0.066-0.407,0.158-0.949,0.276-1.628
		c0.117-0.678,0.175-1.204,0.174-1.577c-0.002-0.779-0.369-1.423-1.101-1.93c-0.731-0.506-1.522-0.759-2.372-0.757
		c-1.087,0.003-2.047,0.218-2.878,0.643c-0.832,0.425-1.544,0.978-2.138,1.658c-0.594,0.679-1.084,1.461-1.472,2.343
		c-0.389,0.882-0.684,1.781-0.886,2.697l-2.92,13.951h-7.194l7.461-36.296L180.819,17.304z"/>
	<path class="st0" d="M198.531,51.89c0,0.969-0.785,1.762-1.758,1.762c-0.969,0-1.75-0.794-1.75-1.762
		c0-0.965,0.781-1.746,1.75-1.746C197.745,50.144,198.531,50.925,198.531,51.89z M195.853,53.055h0.364v-0.961h0.217
		c0.28,0,0.393,0.1,0.672,0.606l0.205,0.355h0.443l-0.272-0.443c-0.188-0.301-0.334-0.489-0.53-0.555V52.04
		c0.384-0.017,0.647-0.284,0.647-0.647c0-0.251-0.188-0.597-0.743-0.597h-1.002V53.055z M196.217,51.786v-0.677h0.589
		c0.238,0,0.405,0.125,0.405,0.33c0,0.238-0.192,0.347-0.468,0.347H196.217z M198.877,51.89c0-1.161-0.94-2.097-2.105-2.097
		c-1.165,0-2.101,0.936-2.101,2.097c0,1.165,0.935,2.105,2.101,2.105C197.937,53.995,198.877,53.055,198.877,51.89z"/>
</g>
</svg>
